<?xml version="1.0" encoding="utf-8"?>
<!-- Generator: Adobe Illustrator 27.5.0, SVG Export Plug-In . SVG Version: 6.00 Build 0)  -->
<svg version="1.1" xmlns="http://www.w3.org/2000/svg" xmlns:xlink="http://www.w3.org/1999/xlink" x="0px" y="0px"
	 viewBox="0 0 750 500" style="enable-background:new 0 0 750 500;" xml:space="preserve">
<g id="BACKGROUND">
</g>
<g id="OBJECTS">
	<rect y="430.903" style="fill:#955450;" width="750" height="70.222"/>
	<g>
		<g>
			<g>
				<path style="fill:#849CF2;" d="M520.01,430.905H416.79c0,0-0.98-14.6-0.4-27.03c0.09-1.98,0.22-3.91,0.4-5.71
					c0,0,14.79-1.15,24.39-2.07c1.85-0.18,4.53-0.15,7.89-0.04c1.95,0.06,4.12,0.15,6.5,0.25c14.84,0.58,37.54,1.3,61.25-3.66
					C516.82,392.645,519.76,409.345,520.01,430.905z"/>
				<path style="fill:#6179BC;" d="M456.76,427.385c-5.75,0-6.21-1.15-6.21-1.15c-0.68-10.45-1.24-23.96-1.48-30.18
					c1.95,0.06,4.12,0.15,6.5,0.25C456.09,407.455,456.76,427.385,456.76,427.385z"/>
				<path style="opacity:0.51;fill:#697DB5;" d="M520.01,430.905h-28.02c0.14-16.29-4.33-20.92-5.64-24.6
					c-1.59-4.46-11.54-3.56-24.2-4.12c-12.67-0.56-18.71-0.54-29.56,1.29c-7.23,1.21-13.09,0.81-16.2,0.4
					c0.09-1.98,0.22-3.91,0.4-5.71c0,0,14.79-1.15,24.39-2.07c1.85-0.18,4.53-0.15,7.89-0.04c1.95,0.06,4.12,0.15,6.5,0.25
					c14.84,0.58,37.54,1.3,61.25-3.66C516.82,392.645,519.76,409.345,520.01,430.905z"/>
			</g>
			<g>
				<path style="fill:#F3A891;" d="M404.28,350.215c-1.78,1.89-4.29,3.39-7.12,4.38c-6.23,2.21-14.06,2-19.21-1.59
					c-2.88-2.01-4.93-5.08-5.41-9.37c-1.74-15.48,14.35-36.73,16.41-39.78l4.2,3.31l2.88,2.27l15.78,12.43
					C411.81,321.865,412.16,341.815,404.28,350.215z"/>
				<path style="opacity:0.17;fill:#913E3C;" d="M404.28,350.215c-1.78,1.89-4.29,3.39-7.12,4.38c10-5.41,13.21-18.16,11.96-26.24
					c-1.24-8.09-4.84-8.54-6.2-9.36c-1.25-0.76-0.21,13.7-0.03,16.12c0.01,0.11,0.02,0.2,0.02,0.25c0.01,0.06,0.01,0.09,0.01,0.09
					c0-0.01,0-0.01-0.01-0.02c-3.61-11.69-8.67-22.39-9.76-28.27l2.88,2.27l15.78,12.43
					C411.81,321.865,412.16,341.815,404.28,350.215z"/>
				<path style="fill:#FFDDC1;" d="M413.97,324.675c-3.46-1.42-6.71-3.09-9.69-4.86c-11.27-6.67-18.73-14.65-18.73-14.65
					s1.1-2.9,2.65-7.16c2.43-6.61,5.96-16.52,8.2-23.98c3.68-12.27,6.5-21.57,9.46-28.42c0,0,1.09,4.98,2.27,13.68v0.01
					c0.67,4.96,1.38,11.12,1.93,18.27c0.98,12.74,2.33,28.73,3.16,38.41C413.67,321.265,413.97,324.675,413.97,324.675z"/>
				<path style="opacity:0.22;fill:#936342;" d="M413.97,324.675c-3.46-1.42-6.71-3.09-9.69-4.86c0,0,2.85-49.02,3.85-60.52
					c0.67,4.96,1.38,11.12,1.93,18.27c0.98,12.74,2.33,28.73,3.16,38.41C413.67,321.265,413.97,324.675,413.97,324.675z"/>
				<path style="fill:#D3A888;" d="M413.97,324.675c-16.49-6.75-28.42-19.51-28.42-19.51s1.1-2.9,2.65-7.16
					c5.59,5.73,15.65,14.97,25.02,17.97C413.67,321.265,413.97,324.675,413.97,324.675z"/>
				<path style="fill:#FFDDC1;" d="M414.954,399.053c-2.033-1.396,1.63-6.916,0-12.622c-1.63-5.706-3.531-21.277-3.498-36.216
					c0.033-14.938-1.19-31.893-0.986-42.369c0.204-10.476-2.446-28.788-4.076-38.076c-1.63-9.288-3.261-18.458-1.019-23.35
					c2.242-4.891,22.278-20.771,45.892-19.972c23.614,0.799,32.774,2.649,45.41,8.152c12.635,5.503,13.247,7.738,14.47,10.085
					c1.223,2.347,4.687,18.021,5.299,39.123c0.611,21.102-1.427,36.795,0.815,59.213c2.242,22.418,3.057,45.651,2.649,49.931
					c-0.408,4.28-12.228,3.261-19.157,4.28c-6.929,1.019-20.176,2.215-29.347,1.821c-9.171-0.394-15.486-0.598-24.455-1.006
					C437.984,397.639,421.523,403.562,414.954,399.053z"/>
				<path style="fill:#D3A888;" d="M487.1,312.305c-0.74,3.72-18.12,4.96-22.09,3.56c-3.03-1.07-4.85-14.15-4.71-21.55
					c0.04-2.34,0.27-4.11,0.73-4.77c1.15-1.64,8.69-2.57,16.22-3.4c7.54-0.82,8.2-0.33,8.86,3.4c0.08,0.43,0.16,1.01,0.24,1.71
					C486.99,296.625,487.76,309.005,487.1,312.305z"/>
				<path style="fill:#B78767;" d="M486.35,291.255c-8.74,0.37-20.83,2.21-26.05,3.06c0.04-2.34,0.27-4.11,0.73-4.77
					c1.15-1.64,8.69-2.57,16.22-3.4c7.54-0.82,8.2-0.33,8.86,3.4C486.19,289.975,486.27,290.555,486.35,291.255z"/>
				<g>
					<path style="fill:#B78767;" d="M433.456,223.729c12.894-3.994,38.629,1.344,38.629,1.344s9.733-1.671,11.091,6.639
						c1.358,8.31-17.254,11.101-36.188,10.508c-18.934-0.593-27.738,0.779-24.207-7.289
						C426.314,226.861,433.456,223.729,433.456,223.729"/>
					<path style="fill:#F3A891;" d="M480,229.535c-3.27,7.97-17.38,20.24-35.28,17.99c-17.91-2.25-20.34-13.78-20.34-13.78
						s1.75-0.12,3.9-1.89c1.37-1.12,2.92-2.92,4.28-5.8c2.1-4.44,2.78-12.01,3-17.31c0.13-3.49,0.07-6,0.07-6
						c29.14-2.88,36.53-22.29,37.34-24.7c-1.99,6.54-3.17,42.34-1.35,45.97C473.46,227.695,480,229.535,480,229.535z"/>
					<path style="opacity:0.17;fill:#913E3C;" d="M480,229.535c-3.27,7.97-17.38,20.24-35.28,17.99
						c-17.91-2.25-20.34-13.78-20.34-13.78s1.75-0.12,3.9-1.89c1.31,3.03,3.74,5.86,8.15,7.09c11.58,3.23,21.84-0.54,22.46-14.82
						c0.61-14.29-0.02-17.34-10.73-15.89c-5.58,0.75-9.82,0.72-12.6,0.51c0.13-3.49,0.07-6,0.07-6
						c29.14-2.88,36.53-22.29,37.34-24.7c-1.99,6.54-3.17,42.34-1.35,45.97C473.46,227.695,480,229.535,480,229.535z"/>
					<path style="fill:#FFDDC1;" d="M444.225,247.46c0,0-0.978-3.633-6.301-3.464c-5.323,0.169-5.238,6.003-5.238,6.003
						L444.225,247.46"/>
					<path style="fill:#FFDDC1;" d="M444.717,247.527c0,0,10.991,2.637,15.576,2.215
						C460.293,249.742,452.101,239.82,444.717,247.527"/>
				</g>
				<g>
					<path style="fill:#D3A888;" d="M444.717,247.527c0,0,2.892-3.439,6.26-4.225c3.368-0.786,9.543-3.368,15.831-6.624
						c6.287-3.256,8.683-6.916,9.843-8.454c1.16-1.538-0.3-4.12-3.893-2.773l-0.674-0.377c0,0,2.358-1.836,6.063,0
						c3.705,1.836,6.4,2.959,10.778,4.755c0,0,1.011,4.603-4.715,16.28c-5.726,11.677-9.88,24.925-9.88,24.925
						s-11.677-16.841-16.392-21.781C453.223,244.312,449.684,243.332,444.717,247.527z"/>
					<path style="fill:#D3A888;" d="M444.225,247.46c0.104,0.122-2.005-4.383-4.924-4.72c-2.919-0.337-6.337,0.765-8.982-4.828
						c-2.645-5.593-0.933-11.52,2.79-13.17l0.348-1.013c0,0-2.098-1.086-9.074,4.64c-6.975,5.726-9.445,14.933-11.13,24.813
						c-1.684,9.88-1.796,18.638-1.796,18.638s7.186-11.115,12.463-16.28c5.277-5.165,8.787-10.174,13.585-10.554
						C442.302,244.606,443.086,246.117,444.225,247.46z"/>
					<path style="fill:#D3A888;" d="M443.108,247.294c0,0-0.776,22.73-0.664,42.153c0,0,1.235,0.898,3.705,0
						c0,0-0.529-32.005,0.802-41.713"/>
					<path style="fill:#D3A888;" d="M453.841,259.946c0,1.132-0.917,2.049-2.049,2.049c-1.132,0-2.049-0.917-2.049-2.049
						c0-1.132,0.917-2.049,2.049-2.049C452.923,257.897,453.841,258.815,453.841,259.946z"/>
					<path style="fill:#D3A888;" d="M453.317,271.819c0,1.132-0.917,2.049-2.049,2.049c-1.132,0-2.049-0.917-2.049-2.049
						c0-1.132,0.917-2.049,2.049-2.049C452.399,269.77,453.317,270.688,453.317,271.819z"/>
				</g>
				<g>
					<path style="fill:#F3A891;" d="M391.78,355.765c-3.73,0.5-9.3-0.07-13.83-2.76c-3.23-1.92-5.94-4.92-7.06-9.37
						c-2.69-10.68-4.13-25.14-5.19-40.99c-1.05-15.86-4.13-33.82-4.61-40.65c-0.48-6.83-0.48-10.66-2.69-17.31
						c-2.21-6.65-2.52-10.94-2.52-10.94s-1.8,1.74-3.15,0.97c-1.34-0.76-3.07-6.14-0.38-9.84c2.69-3.69,4.9-2.69,4.9-2.69
						c4.1-3.66,7.92-1.99,8.16-1.89c-0.09-0.14-0.84-1.25-2.11-2.87c-1.34-1.73-3.26-0.67-5.67,0c-2.4,0.67-5.7,1.59-6.92-0.12
						c-1.22-1.72,0.82-3.78,2.96-4.51c2.14-0.72,9.92-2.67,11.36-1.9c1.44,0.77,5,5.38,5.29,4.99c0.28-0.38-0.77-4.9-1.25-9.98
						c-0.48-5.06,0.47-8.52,2.18-8.56h0.03c1.73,0,1.53,2.02,2.21,6.72c0.67,4.69,2.42,9.69,3.65,16.93
						c2.21,13.08,3.55,24.87,4.13,30.44c0.57,5.57,6.53,31.22,9.17,40.4c1.2,4.16,3.37,10.67,5.59,17.6
						c2.67,8.35,5.41,17.32,6.56,23.56c0.13,0.71,0.23,1.42,0.3,2.12c0.01,0.11,0.02,0.2,0.02,0.25c0,0.02,0.01,0.04,0,0.05
						c0,0.01,0,0.01,0,0.02c0.01,0.01,0.01,0.01,0.01,0.02C403.77,345.895,397.72,354.965,391.78,355.765z"/>
					<path style="opacity:0.17;fill:#913E3C;" d="M402.91,335.365c0,0.02,0.01,0.04,0,0.05c-3.62-11.68-8.67-22.37-9.76-28.25
						c-1.08-5.88-8.35-20.41-10.65-35.35c-2.3-14.93-3.57-28.45-4.59-36.89c-1.02-8.43-4.6-21.43-5.51-29.81
						c-0.37-3.48-0.79-6.01-1.15-7.77h0.03c1.73,0,1.53,2.02,2.21,6.72c0.67,4.69,2.42,9.69,3.65,16.93
						c2.21,13.08,3.55,24.87,4.13,30.44c0.57,5.57,6.53,31.22,9.17,40.4c1.2,4.16,3.37,10.67,5.59,17.6
						c2.67,8.35,5.41,17.32,6.56,23.56c0.13,0.71,0.23,1.42,0.3,2.12C402.9,335.225,402.91,335.315,402.91,335.365z"/>
					<path style="opacity:0.17;fill:#913E3C;" d="M402.91,335.435c0-0.01,0-0.01,0-0.02c0.01,0.03,0.01,0.04,0.01,0.04
						C402.92,335.445,402.92,335.445,402.91,335.435z"/>
					<g style="opacity:0.6;">
						<g style="opacity:0.49;">
							<g>
								<path style="fill:#422214;" d="M357.25,222.189c-0.511,0.973-0.635,2.073-0.699,3.144c-0.072,1.072-0.035,2.155,0.159,3.192
									c0.208,1.021,0.518,2.056,1.162,2.756c0.348,0.321,0.671,0.583,1.166,0.709c0.456,0.141,0.904,0.17,1.207-0.011
									c0.314-0.162,0.557-0.552,0.71-1.013c0.158-0.459,0.239-0.976,0.293-1.499c0.136-1.059,0.071-2.109,0.134-3.252
									c0.045-0.569,0.134-1.143,0.323-1.7c0.188-0.551,0.501-1.103,0.995-1.473c0.498-0.366,1.116-0.49,1.679-0.452
									c0.57,0.031,1.106,0.2,1.613,0.41c-0.539-0.107-1.083-0.181-1.61-0.145c-0.526,0.037-1.024,0.225-1.371,0.565
									c-0.725,0.672-0.862,1.791-0.861,2.818c0.049,1.046,0.123,2.19,0.04,3.314c-0.038,0.567-0.123,1.141-0.309,1.722
									c-0.185,0.563-0.498,1.212-1.16,1.583c-0.674,0.363-1.408,0.246-1.976,0.065c-0.576-0.151-1.168-0.557-1.58-1.013
									c-0.797-0.978-1.095-2.151-1.213-3.273c-0.113-1.131-0.062-2.257,0.115-3.359
									C356.294,224.197,356.537,223.055,357.25,222.189z"/>
							</g>
							<g>
								<path style="fill:#422214;" d="M355.885,233.74c0.019-0.773,0.106-1.361,0.203-1.983c0.056-0.306,0.113-0.613,0.187-0.93
									c0.078-0.319,0.155-0.645,0.316-1.013c0.495,0.613,0.591,1.389,0.482,2.111c-0.069,0.361-0.187,0.715-0.384,1.031
									C356.499,233.271,356.246,233.565,355.885,233.74z"/>
							</g>
						</g>
						<g style="opacity:0.5;">
							<path style="fill:#422214;" d="M375.599,226.841c-2.029,0.056-4.157-0.374-5.954-1.442c-0.898-0.48-1.784-1.007-2.679-1.343
								c-0.426-0.164-0.921-0.285-1.148-0.154c-0.232,0.06-0.353,0.465-0.438,0.934c-0.185,0.886,0.136,1.705,0.705,2.494
								c0.561,0.777,1.242,1.544,1.919,2.275c1.331,1.404,3.074,2.484,4.902,3.117l0.026,0.009c0.183,0.063,0.286,0.252,0.248,0.436
								c-0.111,0.536-0.088,1.196,0.024,1.794c0.111,0.611,0.329,1.203,0.6,1.773c0.278,0.568,0.625,1.108,1.03,1.61
								c0.406,0.501,0.864,0.961,1.341,1.41l-0.798-0.575c-0.244-0.219-0.505-0.424-0.734-0.662
								c-0.47-0.466-0.894-0.984-1.256-1.553c-0.346-0.577-0.616-1.207-0.787-1.869c-0.165-0.672-0.256-1.336-0.155-2.089
								l0.273,0.445c-1.054-0.266-2.004-0.691-2.92-1.224c-0.916-0.524-1.762-1.181-2.5-1.949c-0.711-0.757-1.413-1.496-2.027-2.384
								c-0.303-0.443-0.585-0.932-0.755-1.493c-0.178-0.559-0.183-1.183-0.069-1.737c0.059-0.283,0.121-0.528,0.264-0.841
								c0.053-0.147,0.185-0.297,0.288-0.434c0.147-0.123,0.291-0.256,0.475-0.312c0.747-0.264,1.309,0.02,1.807,0.202
								c0.987,0.453,1.819,1.038,2.683,1.576C371.623,225.97,373.57,226.598,375.599,226.841z"/>
						</g>
					</g>
				</g>
				<g>
					<g>
						<path style="fill:#F3A891;" d="M535.44,353.895c-0.95,10.95-1.7,18.13-17.19,21.9c-15.48,3.78-34.18,4.54-43.24,4.35
							c-9.07-0.19-13.98,2.64-23.74,3.21c-4.69,0.27-7.63-0.29-9.42-0.94c-1.94-0.7-2.53-1.52-2.53-1.52
							c-3.97-1.51-5.48-4.15-5.48-4.15c-3.4-0.38-6-3.78-6-3.78c-3.35,0.38-12.69-2.83-10.8-6.04c1.88-3.21,10,1.13,14.73-1.13
							c4.72-2.27,6.23-5.1,5.28-5.48c-0.94-0.38-4.53,2.83-9.21,3.78c-4.68,0.94-8.73-2.84-4.76-4.35
							c3.96-1.52,7.93-3.58,11.52-5.28c3.59-1.7,8.12-0.57,14.62,3.21c6.5,3.77,8.98,1.7,17.64-0.76
							c8.65-2.45,34.96-9.44,35.72-12.27c0.48-1.83-0.75-14.22-1.7-22.79c-0.51-4.71-0.94-8.27-0.94-8.27
							c13.21-1.97,33.04-9.73,33.04-9.73C533.74,314.235,536.38,342.945,535.44,353.895z"/>
						<path style="opacity:0.17;fill:#913E3C;" d="M535.44,353.895c-0.95,10.95-1.7,18.13-17.19,21.9
							c-15.48,3.78-34.18,4.54-43.24,4.35c-9.07-0.19-13.98,2.64-23.74,3.21c-4.69,0.27-7.63-0.29-9.42-0.94
							c12.97-2.1,21.38-7.29,26.26-9.39c6.15-2.65,44.55,2.17,50.66-9c6.12-11.16,4.51-43.89,1.24-46.25
							c-2.07-1.5-12.08,1.6-19.13,4.08c-0.51-4.71-0.94-8.27-0.94-8.27c13.21-1.97,33.04-9.73,33.04-9.73
							C533.74,314.235,536.38,342.945,535.44,353.895z"/>
						<g style="opacity:0.5;">
							<g>
								<path style="fill:#422214;" d="M427.843,372.967c1.617-0.254,3.157-0.465,4.725-0.673c0.783-0.09,1.565-0.201,2.358-0.272
									c0.792-0.078,1.589-0.151,2.417-0.14c-1.455,0.777-3.041,1.179-4.648,1.403c-0.807,0.091-1.62,0.149-2.436,0.107
									C429.446,373.351,428.622,373.254,427.843,372.967z"/>
							</g>
							<g>
								<path style="fill:#422214;" d="M433.842,376.743c1.237-0.355,2.435-0.486,3.645-0.6c1.213-0.081,2.411-0.156,3.693-0.001
									c-1.132,0.625-2.373,0.886-3.612,0.998C436.327,377.223,435.063,377.177,433.842,376.743z"/>
							</g>
							<g>
								<path style="fill:#422214;" d="M439.319,380.898c1.101-0.405,2.187-0.546,3.279-0.649c1.096-0.073,2.177-0.109,3.335,0.083
									c-1.022,0.589-2.144,0.81-3.255,0.913C441.561,381.316,440.432,381.281,439.319,380.898z"/>
							</g>
						</g>
					</g>
					<g>
						<path style="fill:#FFDDC1;" d="M536.97,303.475c0,0-12.05,7.87-37.59,13.09c-2.08,0.42-4.25,0.83-6.51,1.21
							c0,0-0.75-2.62-1.64-6.82c-2.12-9.83-5.08-28.35-1.36-42.39c0.23-0.86,0.46-1.69,0.71-2.5c5.39-18.16,14.13-25.02,17.37-25.43
							c4.23-0.52,20.91,20.81,27.76,55.56C536.18,298.555,536.6,300.985,536.97,303.475z"/>
						<path style="fill:#D3A888;" d="M536.97,303.475c0,0-14.09,9.2-44.1,14.3c0,0-0.75-2.62-1.64-6.82
							c8.98-1.42,25.98-5.19,44.48-14.76C536.18,298.555,536.6,300.985,536.97,303.475z"/>
						<path style="opacity:0.22;fill:#936342;" d="M499.38,316.565c-2.08,0.42-4.25,0.83-6.51,1.21c0,0-0.75-2.62-1.64-6.82
							c-2.12-9.83-5.08-28.35-1.36-42.39c0.23-0.86,0.46-1.69,0.71-2.5C490.58,266.065,492.95,295.535,499.38,316.565z"/>
					</g>
				</g>
			</g>
		</g>
		<g>
			<path style="fill:#37232E;" d="M406.647,129.282c-10.483-2.402-18.458-27.145-2.917-35.529
				c15.541-8.384,40.079-6.134,57.665,6.748c0,0-6.953-8.075-2.863-11.706c4.09-3.631,14.519,1.277,21.062,18.045
				c0,0,10.02-7.569,16.768,1.634c6.748,9.203-7.762,23.518-13.185,48.669c0,0-5.014-4.132-12.376,6.625
				c0,0-9.333-12.964-11.006-35.048c0,0-5.762,3.067-24.779,5.317C415.999,136.286,406.647,129.282,406.647,129.282z"/>
			<g>
				<path style="fill:#F3A891;" d="M472.44,180.745c0,0,0,18.8-22.27,23.5c-19.92,4.21-32.68,0.16-40.35-9.28
					c-0.08-0.11-0.17-0.21-0.26-0.32c-0.2-0.25-0.4-0.51-0.59-0.77c-0.17-0.24-0.33-0.45-0.48-0.66c-0.41-0.58-0.8-1.18-1.17-1.79
					c-6.99-11.46-7.26-43.26-1.39-60.2c0.23-0.67,0.47-1.32,0.72-1.94c0,0,20.92,6.93,54.82-4.81c0,0,1.01,17.98,9.85,34.78
					c0,0,3.91-8.94,11.74-5.25C490.9,157.705,489.55,177.955,472.44,180.745z"/>
				<path style="opacity:0.17;fill:#913E3C;" d="M472.44,180.745c0,0,0,18.8-22.27,23.5c-19.92,4.21-32.68,0.16-40.35-9.28
					c12.07,14.02,50.93,9.83,54.13-15.16c3.28-25.61-6.74-49.17-6.74-49.17s-12.35,4.08-32.83,3.75
					c-8.91-0.15-14.72-1.59-18.45-3.16c0.23-0.67,0.47-1.32,0.72-1.94c0,0,20.92,6.93,54.82-4.81c0,0,1.01,17.98,9.85,34.78
					c0,0,3.91-8.94,11.74-5.25C490.9,157.705,489.55,177.955,472.44,180.745z"/>
				<g style="opacity:0.48;">
					<path style="fill:#422214;" d="M483.177,159.951c-1.525-0.416-3.208-0.305-4.507,0.512c-1.327,0.76-2.232,2.081-2.832,3.484
						c-0.59,1.42-0.987,2.933-1.011,4.449c0.003,0.753,0.052,1.511,0.263,2.218c0.176,0.716,0.52,1.377,0.986,1.873
						c0.46,0.505,1.074,0.807,1.733,0.803c0.666,0.019,1.331-0.34,1.933-0.707c1.17-0.79,1.652-2.346,1.594-3.824
						c-0.065-1.465-0.636-3.076-1.897-3.851c-0.312-0.183-0.662-0.297-1.029-0.331c-0.368-0.018-0.745,0.042-1.107,0.168
						c-0.725,0.258-1.37,0.745-1.959,1.276c0.512-0.605,1.105-1.178,1.859-1.522c0.375-0.171,0.786-0.281,1.215-0.3
						c0.428-0.003,0.86,0.092,1.253,0.276c0.78,0.396,1.34,1.088,1.734,1.825c0.378,0.75,0.624,1.566,0.699,2.405
						c0.184,1.643-0.327,3.551-1.807,4.645c-0.721,0.471-1.519,0.911-2.475,0.916c-0.942,0.024-1.87-0.43-2.473-1.095
						c-0.611-0.666-1.002-1.477-1.2-2.302c-0.231-0.823-0.289-1.669-0.266-2.501c0.087-1.664,0.528-3.281,1.26-4.746
						c0.723-1.454,1.789-2.852,3.297-3.592C479.94,159.294,481.719,159.321,483.177,159.951z"/>
				</g>
			</g>
			<g>
				<g>
					<path style="fill:#37232E;" d="M414.673,156.017c0,2.172-0.982,3.934-2.193,3.934c-1.211,0-2.192-1.761-2.192-3.934
						c0-2.172,0.982-3.934,2.192-3.934C413.691,152.084,414.673,153.845,414.673,156.017z"/>
					<path style="fill:#37232E;" d="M443.372,156.017c0,2.172-0.982,3.934-2.192,3.934c-1.211,0-2.193-1.761-2.193-3.934
						c0-2.172,0.982-3.934,2.193-3.934C442.391,152.084,443.372,153.845,443.372,156.017z"/>
				</g>
				<path style="opacity:0.78;fill:#AA4D44;" d="M423.919,148.145c0.63-0.747,4.822-0.391,5.408,0.652
					c0.586,1.043,2.15,19.483,0.912,20.851c-1.238,1.368-4.691,1.303-6.711,0.717c-2.02-0.587-1.629-1.955-1.759-3.91
					C421.639,164.5,422.16,150.23,423.919,148.145z"/>
				<path style="opacity:0.43;fill:none;stroke:#422214;stroke-linecap:round;stroke-linejoin:round;stroke-miterlimit:10;" d="
					M426.591,184.765c0,0,12.576-9.709,26.324-11.729"/>
				<g style="opacity:0.57;">
					<g>
						<path style="fill:#AA4D44;" d="M451.417,164.37c2.013,1.29-0.326,5.995-3.323,5.083
							C445.096,168.54,448.875,162.741,451.417,164.37z"/>
						<path style="fill:#AA4D44;" d="M459.043,164.056c2.013,1.29-0.326,5.995-3.323,5.082
							C452.723,168.226,456.502,162.427,459.043,164.056z"/>
					</g>
					<g>
						<path style="fill:#AA4D44;" d="M407.128,166.623c2.013,1.29-0.326,5.995-3.323,5.082
							C400.807,170.793,404.586,164.994,407.128,166.623z"/>
						<path style="fill:#AA4D44;" d="M414.754,166.308c2.013,1.29-0.326,5.995-3.323,5.082
							C408.434,170.479,412.213,164.679,414.754,166.308z"/>
					</g>
				</g>
				<g>
					<g>
						<path style="fill:#37232E;" d="M439.357,141.986c1.655-0.157,4.152-0.341,6.944-0.369c1.521-0.015,2.772-1.283,2.647-2.798
							c-0.005-0.06-0.011-0.12-0.017-0.182c-0.128-1.18-1.045-2.114-2.215-2.315c-1.745-0.299-4.669-0.522-8.253,0.278
							c-1.286,0.287-2.227,1.469-2.145,2.784c0.002,0.037,0.005,0.075,0.008,0.112C436.453,141.021,437.834,142.131,439.357,141.986
							z"/>
						<path style="fill:#37232E;" d="M408.825,146.417c1.619-0.38,4.067-0.9,6.83-1.306c1.505-0.221,2.573-1.646,2.245-3.131
							c-0.013-0.059-0.027-0.118-0.042-0.178c-0.286-1.152-1.322-1.953-2.508-1.994c-1.77-0.06-4.697,0.115-8.139,1.392
							c-1.235,0.458-2.008,1.757-1.748,3.049c0.007,0.036,0.015,0.073,0.023,0.11C405.818,145.853,407.336,146.766,408.825,146.417z
							"/>
					</g>
				</g>
			</g>
		</g>
	</g>
	<g>
		<g>
			<g>
				<g>
					<path style="fill:#F3A891;" d="M290.62,126.645c-2.21,7.78-5.21,29.15-6.71,36.28c-0.93,4.43-4.17,26.37-12.75,51.21
						c-5.26,15.22-12.52,31.53-22.48,45.56c0,0-10.07-22.31-20.02-30.05c-0.51-0.4-1.01-0.76-1.52-1.07c0,0,0.51-0.5,1.38-1.51
						c3.04-3.54,10.39-13.29,14.9-29.2c5.79-20.44,13.53-51,14.18-61.28c0.64-10.28-0.4-15.75-2.75-21.18s-0.98-7.23,1.41-6.52
						c2.39,0.7,5.1,3.57,7.51,12.13c0,0,2.02-7.31,2.84-14.04c0.82-6.74,1.51-9.88,4.18-9.38c0.25,0.05,0.48,0.15,0.68,0.33
						c1.96,1.55,1.78,8.17,1.21,14.63c-0.63,7.13-1.5,8.88-0.5,8.89c0.99,0,2.81-12.93,3.09-17.62c0.29-4.69,1.44-8.51,4.06-6.77
						c2.62,1.74,1.02,14.96,0.83,18.04c-0.18,3.09-1.72,6.98-1.02,7.33c0.7,0.34,2.52-7.37,3.17-12.01s1.13-9.8,3.97-8.78
						c2.85,1.03,0.99,12.47,0.38,16.86c-0.62,4.4-1.39,4.66-0.68,4.89c0.71,0.22,2.07-5.94,2.95-8.68c0.89-2.74,1.59-6,3.25-5.39
						C293.84,109.915,292.83,118.865,290.62,126.645z"/>
					<path style="opacity:0.17;fill:#913E3C;" d="M271.16,214.135c-5.26,15.22-12.52,31.53-22.48,45.56c0,0-10.07-22.31-20.02-30.05
						l-0.14-2.58c3.04-3.54,10.39-13.29,14.9-29.2c5.79-20.44,13.53-51,14.18-61.28c0.64-10.28-0.4-15.75-2.75-21.18
						s-0.98-7.23,1.41-6.52c2.39,0.7,5.1,3.57,7.51,12.13c0,0,2.02-7.31,2.84-14.04c0.82-6.74,1.51-9.88,4.18-9.38
						c0.25,0.05,0.48,0.15,0.68,0.33c-0.59,3.29-1.14,7.71-1.4,13.48c-0.75,16.24-14.25,78.12-15.69,84.01
						C253.26,200.005,253.97,210.085,271.16,214.135z"/>
				</g>
				<g>
					<path style="fill:#849CF2;" d="M268.55,236.005c0,0-9.21,15.71-23.11,32.31c-6.07,7.24-12.24,14.29-18.23,20.54
						c-7.76,8.07-15.23,14.82-21.84,18.99c0,0-8.23-50.85-22.23-68.23c0,0,10.98,1.95,23.46-3.66c3.21-1.44,6.53-3.38,9.78-5.99
						c15.89-12.73,18.05-20.31,24.01-25.9C240.39,204.065,255.91,211.465,268.55,236.005z"/>
					
						<path style="opacity:0.68;fill:none;stroke:#FFFFFF;stroke-width:0.916;stroke-linecap:round;stroke-linejoin:round;stroke-miterlimit:10;stroke-dasharray:3,4;" d="
						M188.034,247.387c0,0,20.657-1.06,35.513-16.417c14.856-15.356,17.886-20.179,21.696-23.814"/>
					<path style="opacity:0.51;fill:#697DB5;" d="M227.21,288.855c-7.76,8.07-15.23,14.82-21.84,18.99c0,0-8.23-50.85-22.23-68.23
						c0,0,10.98,1.95,23.46-3.66c-0.4,3.1,0.39,6.42,2.3,8.82c1.63,2.06,3.93,3.5,5.59,5.53c2.89,3.56,3.46,8.46,3.26,13.03
						c-0.19,4.58-1.03,9.16-0.48,13.71c0.56,4.55,2.87,9.25,7.08,11.03C225.26,288.465,226.22,288.695,227.21,288.855z"/>
				</g>
			</g>
			<g>
				<path style="fill:#697DB5;" d="M132.419,258.832c0,0-4.354-22.249,15.3-26.825s41.523-6.769,47.151,10.776
					c5.628,17.545-9.891,27.652-24.063,30.138C156.635,275.407,138.13,272.923,132.419,258.832z"/>
				<path style="fill:#EC665D;" d="M218.53,430.905H105.09c0,0-2.17-66.06,0-102.89c2.16-36.82,8.14-67.34,33.04-82.81
					c0.97-0.6,2.08-1.14,3.3-1.63c9.51-3.71,25.72-3.79,36.22-3.01c11.84,0.89,11.02,1,15.93,3.48s13.91,17.91,16.04,70.17
					C211.76,366.465,218.53,430.905,218.53,430.905z"/>
				<path style="opacity:0.25;fill:#772525;" d="M175.82,430.905h-70.73c0,0-2.17-66.06,0-102.89c2.16-36.82,8.14-67.34,33.04-82.81
					c0.97-0.6,2.08-1.14,3.3-1.63c2.88,6.3,8.92,19.26,14.44,29.93c7.58,14.65,5.11,28.44,4.03,40.08
					c-1.09,11.64,0.62,17.66,4.13,30.05c3.51,12.4,2.09,22.35,3.75,32.51c1.66,10.15,7.66,37.25,7.93,44.01
					C175.83,422.995,175.85,427.105,175.82,430.905z"/>
				<path style="fill:#849CF2;" d="M170.81,430.905H96.19c0,0-0.62-11.97-1.41-27.81c-0.75-15.08-1.65-33.67-2.3-48.75
					c-0.17-4.07-0.32-7.88-0.45-11.3c-0.6-15.78,2.96-35.24,6.98-51.09c3.48-13.69,7.31-24.67,9.11-28.26
					c3.08-6.16,11.61-13.75,19.01-17.99c1.91-1.09,3.75-1.96,5.4-2.53c0,0,1.11,9.82,9.15,22.25c8.04,12.43,13.66,16.54,13.66,16.54
					c1.87,5.88,1.17,14.76,0,27.24c-1.18,12.48,1.04,23.58,3.26,32.45c2.22,8.88,1.57,18.59,2.73,30.79
					c1.15,12.21,7.53,35.51,8.37,44.39C170.53,425.705,170.81,430.905,170.81,430.905z"/>
				<path style="opacity:0.51;fill:#697DB5;" d="M138.78,430.905H96.19c0,0-3.05-58.46-4.16-87.86c-0.6-15.78,2.96-35.24,6.98-51.09
					c13.06,2.09,25.42,15.89,25.42,15.89s5.04,32.38,7.58,55.82C134.11,383.055,133.73,408.955,138.78,430.905z"/>
				<path style="fill:#849CF2;" d="M192.547,278.967c0,0-0.604,2.425,1.033,11.059c1.637,8.634,2.537,14.57,3.436,27.521
					c0.899,12.951,3.327,34.806,3.597,51.534c0.27,16.728,3.777,32.647,4.317,43.709c0.54,11.062,1.619,18.113,1.619,18.113h16.998
					c0,0-2.482-18.923-5.018-34.842c-2.536-15.919-3.616-45.868-3.885-57.74c-0.27-11.872-4.237-43.805-8.575-62.292
					c-4.338-18.487-9.053-26.03-9.053-26.03s1.879,10.194,0,19.52S192.547,278.967,192.547,278.967z"/>
				<g style="opacity:0.68;">
					<g>
						<path style="fill:none;stroke:#FFFFFF;stroke-width:0.916;stroke-linecap:round;stroke-linejoin:round;" d="M152.012,284.318
							c0,0,0.112,0.497,0.254,1.473"/>
						
							<path style="fill:none;stroke:#FFFFFF;stroke-width:0.916;stroke-linecap:round;stroke-linejoin:round;stroke-dasharray:3.0201,4.0269;" d="
							M152.672,289.794c0.138,2.093,0.215,4.773,0.112,8.014c-0.28,8.829-1.146,16.678-0.363,26.629
							c0.783,9.951,3.025,14.856,4.427,26.629c1.401,11.773,0.561,16.538,2.383,28.871c1.822,12.333,4.905,21.723,6.307,28.31
							c0.99,4.652,1.7,14.035,2.032,19.145"/>
						<path style="fill:none;stroke:#FFFFFF;stroke-width:0.916;stroke-linecap:round;stroke-linejoin:round;" d="M167.696,429.408
							c0.056,0.942,0.085,1.495,0.085,1.495"/>
					</g>
				</g>
				
					<path style="opacity:0.68;fill:none;stroke:#FFFFFF;stroke-width:0.916;stroke-linecap:round;stroke-linejoin:round;stroke-miterlimit:10;stroke-dasharray:3,4;" d="
					M194.979,278.764c0,0-0.822,5.078,2.037,16.974c2.859,11.896,3.497,29.316,4.346,37.6c0.85,8.285,2.124,18.906,2.124,26.342
					c0,7.435,0.425,16.994,2.124,29.103c1.7,12.109,2.001,25.704,2.382,31.015c0.38,5.311,1.442,11.105,1.442,11.105"/>
				<g>
					<path style="fill:#ABC1FF;" d="M147.718,232.007c0,0-12.476,2.259-10.549,13.809c1.927,11.55,14.383,26.371,18.167,36.146
						c0,0-1.892-2.996-5.046,6.78c-3.153,9.776-6.78,17.501-9.145,22.074c0,0-3.153-10.406-7.568-23.178
						c-4.415-12.771-9.46-30.273-9.46-36.738c0-6.464,15.104-21.232,23.792-19.84L147.718,232.007z"/>
					<path style="fill:#ABC1FF;" d="M192.547,278.967c0,0,3.311-2.96,3.626-15.276c0.315-12.316-1.027-27.521-12.418-31.981
						l-0.617-1.744c0,0,4.537,0.28,10.442,7.848c5.904,7.568,12.999,12.141,15.995,19.709c2.996,7.568,0.315,23.493-2.365,43.36
						c0,0-2.365-7.095-5.676-12.614S195.858,276.76,192.547,278.967z"/>
				</g>
			</g>
			<g>
				<path style="fill:#F3A891;" d="M132.67,458.505c-2.25,1.59-8.36-1.46-12.07-8.62c0,0-0.01,12.07,0,19.23
					c0,7.16-4.9,6.49-5.7,1.85c-0.79-4.64-2.38-20.28-2.38-20.81s-1.2-0.93-1.33,0.66c-0.13,1.59,0.26,13.92,0.53,18.96
					c0.27,5.04-2.52,7.43-4.38,6.1c-1.85-1.33-1.85-12.6-2.12-17.5c-0.26-4.91-0.34-7.96-1.1-7.82c-0.75,0.13-0.75,10.07-0.75,13.12
					c0,3.05-0.53,7.69-2.65,7.56c-0.05,0-0.1-0.01-0.15-0.02c-1.98-0.37-1.98-5.52-1.98-9.66c0-4.24,0.27-9.41,0-9.81
					c-0.26-0.4-1.19,5.7-1.32,8.48c-0.13,2.79-1.33,5.84-3.05,3.98c-1.73-1.85-1.06-9.41,0-13.65c1.06-4.25,1.19-7.3,0.79-10.74
					c-0.39-3.45-5.17-31.56-6.23-49.59s0-33.68,1.33-40.84c0,0,21.21,5.04,33.01,7.69c0,0-0.4,3.14-0.88,7.83
					c-0.76,7.35-1.72,18.53-1.64,27.44c0.14,14.58,2.26,37.12,3.85,43.62c1.59,6.5,4.72,12.2,6.93,15.91
					C133.6,455.585,134.92,456.915,132.67,458.505z"/>
				<path style="opacity:0.17;fill:#913E3C;" d="M123.12,357.075c0,0-0.4,3.14-0.88,7.83c-3.91-0.63-9.52-1.52-14.3-2.24
					c-8.28-1.26-12.04,5.8-10.04,36.39c2.01,30.58,3.52,44.63,3.02,50.9c-0.32,3.91-1.15,13.57-0.35,21.26
					c-1.98-0.37-1.98-5.52-1.98-9.66c0-4.24,0.27-9.41,0-9.81c-0.26-0.4-1.19,5.7-1.32,8.48c-0.13,2.79-1.33,5.84-3.05,3.98
					c-1.73-1.85-1.06-9.41,0-13.65c1.06-4.25,1.19-7.3,0.79-10.74c-0.39-3.45-5.17-31.56-6.23-49.59s0-33.68,1.33-40.84
					C90.11,349.385,111.32,354.425,123.12,357.075z"/>
			</g>
			<g>
				<path style="fill:#849CF2;" d="M127.15,360.545c-10.47-1.08-21.62-3.26-30.31-5.2c-1.53-0.34-2.99-0.68-4.36-1
					c-6.7-1.59-11.1-2.82-11.1-2.82c0.17-5.44,0.34-33.69,7.66-54.62c7.31-20.93,19.08-33.21,19.08-33.21
					c0.79,1.08,1.7,2.42,2.69,4.03c4.59,7.43,10.77,20.36,13.31,37.86C127.21,326.855,127.15,360.545,127.15,360.545z"/>
				
					<path style="opacity:0.68;fill:none;stroke:#FFFFFF;stroke-width:0.916;stroke-linecap:round;stroke-linejoin:round;stroke-miterlimit:10;stroke-dasharray:3,4;" d="
					M86.855,352.967c0,0-2.151-28.78,9.637-57.914c11.788-29.134,29.843-42.241,37.182-46.768"/>
				<path style="opacity:0.51;fill:#697DB5;" d="M127.13,245.705c-2.44,3.07-4.77,6.24-7.12,9.27c-3.22,4.14-6.44,8.29-9.2,12.75
					c-0.17,0.25-0.32,0.51-0.48,0.77c-12.41,20.5-13.84,45.63-13.92,69.59c-0.02,5.72,0.04,11.52,0.43,17.26
					c-1.53-0.34-2.99-0.68-4.36-1c-6.7-1.59-11.1-2.82-11.1-2.82c0.17-5.44,0.34-33.69,7.66-54.62
					c7.31-20.93,19.08-33.21,19.08-33.21C111.2,257.535,119.73,249.945,127.13,245.705z"/>
			</g>
		</g>
		<g>
			<g>
				<path style="fill:#F3A891;" d="M193.58,244.045c0,0-2.16,17.71-21.85,19.53c-19.7,1.82-33.6-18.37-33.6-18.37
					c0.38-0.15,1.04-0.5,1.85-1.08c2.78-2,7.35-6.68,8.24-15.14c1.13-10.62-3.38-26.45-3.63-27.32
					c10.29,26.05,36.89,20.7,36.89,20.7s0.05,0.89,0.32,2.4c0.44,2.45,1.47,6.56,3.83,11.17c2.16,4.23,4.43,6.27,5.98,7.24
					C192.8,243.915,193.58,244.045,193.58,244.045z"/>
				<path style="opacity:0.17;fill:#913E3C;" d="M193.58,244.045c0,0-2.16,17.71-21.85,19.53c-19.7,1.82-33.6-18.37-33.6-18.37
					c0.38-0.15,1.04-0.5,1.85-1.08c2.78-2,7.35-6.68,8.24-15.14c1.13-10.62-3.38-26.45-3.63-27.32
					c10.29,26.05,36.89,20.7,36.89,20.7s0.05,0.89,0.32,2.4c-2.24,0.38-5.84,1.01-10.99,1.87c-9.68,1.62-15.28-1.87-16.86,0.76
					c-1.57,2.64-0.72,7.24-3.74,13.94c-3.02,6.69,4.92,16.38,17.24,18.36c12.31,1.98,20.92-6.78,24.16-16.52
					C192.8,243.915,193.58,244.045,193.58,244.045z"/>
				<path style="fill:#FFFFFF;" d="M193.58,244.045c0,0-2.16,17.71-21.85,19.53c-19.7,1.82-33.6-18.37-33.6-18.37
					c0.38-0.15,1.04-0.5,1.85-1.08c4.5,5.44,16.67,18.18,31.42,17.14c12.96-0.92,18.21-11.61,20.21-18.09
					C192.8,243.915,193.58,244.045,193.58,244.045z"/>
			</g>
			<g>
				<g>
					<path style="fill:#37232E;" d="M131.342,181.65c0,0-9.434-8.276-12.248-25.986c-2.814-17.71,15.062-28.303,24.662-19.034
						c0,0-7.283-16.717,3.476-23.503c10.758-6.786,18.206,8.11,31.613,16.551c0,0-1.821-4.965-1.49-9.269
						c0.331-4.303,2.814-3.31,4.965,2.317c2.152,5.627,5.131,6.952,5.131,6.952s4.8-7.117,12.579-2.152
						c7.779,4.965,13.738,20.865,6.124,37.991c0,0-3.807-15.15-13.738-15.812c-9.931-0.662-14.035,14.069-38.465,18.537
						C153.952,168.243,150.376,191.249,131.342,181.65z"/>
					<g>
						<path style="fill:#F3A891;" d="M208.54,209.425c-0.03,0.07-0.05,0.13-0.07,0.2c-4.96,14.56-36.58,16.22-46.67,13.57
							c-10.1-2.65-17.05-15.49-18.87-21.57c0,0-6.95,2.01-12.58-5.26c-5.63-7.27-3.31-16.7,1.99-17.2c5.29-0.49,8.27,2.32,8.27,2.32
							s7.61-7.95,4.97-24.17c0,0,16.05,1.99,27.64-4.63c0,0-7.78,9.61-22.35,12.83c0,0,11.75-0.25,21.35-6.38
							c9.6-6.12,11.59-12.57,20.86-11.25c6.56,0.93,10.15,6.19,11.97,10.47v0.01c0.76,1.77,1.21,3.37,1.44,4.44
							C207.38,166.925,213.39,194.805,208.54,209.425z"/>
						<path style="opacity:0.17;fill:#913E3C;" d="M208.54,209.425c-0.03,0.07-0.05,0.13-0.07,0.2
							c-4.96,14.56-36.58,16.22-46.67,13.57c-10.1-2.65-17.05-15.49-18.87-21.57c0,0-6.95,2.01-12.58-5.26
							c-5.63-7.27-3.31-16.7,1.99-17.2c5.29-0.49,8.27,2.32,8.27,2.32s7.61-7.95,4.97-24.17c0,0,16.05,1.99,27.64-4.63
							c0,0-7.78,9.61-22.35,12.83c0,0,11.75-0.25,21.35-6.38c9.6-6.12,11.59-12.57,20.86-11.25c6.56,0.93,10.15,6.19,11.97,10.47
							c-0.16-0.28-6.02-10.57-14.77-7.35c-8.86,3.26-10.575,6.551-18.775,10.301c-8.21,3.75-22.294,4.476-22.694,5.976
							c-0.4,1.51-3.84,14.446,0,30.066c3.85,15.61,17.17,24.073,35.871,23.14C198.637,219.792,205.91,214.345,208.54,209.425z"/>
						<g style="opacity:0.48;">
							<path style="fill:#422214;" d="M130.349,186.119c0.478-0.509,1.024-0.96,1.624-1.335c0.597-0.376,1.243-0.704,1.955-0.873
								c1.414-0.425,3.067,0.084,4.136,1.114c1.096,1.026,1.727,2.37,2.262,3.694c0.503,1.348,0.781,2.843,0.532,4.342
								c-0.119,0.748-0.411,1.475-0.84,2.129c-0.467,0.629-1.117,1.167-1.91,1.392c-0.788,0.233-1.674,0.103-2.366-0.309
								c-0.694-0.413-1.186-1.069-1.478-1.775c-0.301-0.709-0.376-1.476-0.311-2.208c0.068-0.732,0.243-1.458,0.598-2.102
								c0.355-0.636,0.851-1.216,1.499-1.56c0.644-0.36,1.43-0.372,2.077-0.109c-0.685-0.158-1.397-0.039-1.941,0.337
								c-0.549,0.373-0.935,0.941-1.193,1.546c-0.511,1.205-0.584,2.657-0.025,3.786c0.28,0.553,0.693,1.034,1.211,1.326
								c0.519,0.279,1.117,0.34,1.66,0.161c0.544-0.173,1.023-0.557,1.379-1.047c0.324-0.517,0.56-1.102,0.654-1.734
								c0.231-1.257,0.001-2.605-0.438-3.862c-0.449-1.261-1.032-2.501-1.907-3.46c-0.874-0.941-2.184-1.464-3.504-1.184
								C132.696,184.575,131.454,185.287,130.349,186.119z"/>
						</g>
					</g>
				</g>
				<g>
					<g>
						<g>
							<path style="fill:#37232E;" d="M168.143,182.371c0.258,2.16-0.511,4.027-1.718,4.171c-1.207,0.144-2.394-1.489-2.653-3.649
								c-0.258-2.16,0.511-4.027,1.718-4.171C166.697,178.578,167.885,180.211,168.143,182.371z"/>
							<path style="fill:#37232E;" d="M198.31,177.899c0.258,2.16-0.511,4.027-1.718,4.171s-2.394-1.489-2.653-3.649
								c-0.258-2.16,0.511-4.027,1.718-4.171C196.864,174.106,198.052,175.739,198.31,177.899z"/>
						</g>
					</g>
					<path style="opacity:0.57;fill:none;stroke:#422214;stroke-linecap:round;stroke-linejoin:round;stroke-miterlimit:10;" d="
						M169.432,201.627c0,0,7.065-1.853,12.046,0"/>
					<path style="opacity:0.78;fill:#AA4D44;" d="M180.088,176.146c1.443-0.589,2.201-0.695,4.517,4.749
						c2.316,5.444,5.328,11.698,5.212,12.741c-0.116,1.042-6.602,3.127-8.339,2.664C179.741,195.836,178.927,176.62,180.088,176.146
						z"/>
					<g style="opacity:0.52;">
						<g>
							<g>
								<path style="fill:#AA4D44;" d="M154.574,191.389c2.201,1.853-1.274,7.065-3.591,5.212
									C148.528,194.637,152.532,189.669,154.574,191.389z"/>
								<path style="fill:#AA4D44;" d="M161.89,191.389c2.201,1.853-1.274,7.065-3.591,5.212
									C155.844,194.637,159.848,189.669,161.89,191.389z"/>
							</g>
							<g>
								<path style="fill:#AA4D44;" d="M202.386,183.46c1.987,1.673-1.15,6.378-3.241,4.705
									C196.929,186.392,200.543,181.908,202.386,183.46z"/>
								<path style="fill:#AA4D44;" d="M208.99,183.46c1.986,1.673-1.15,6.378-3.241,4.705
									C203.533,186.392,207.146,181.908,208.99,183.46z"/>
							</g>
						</g>
					</g>
					<g>
						<g>
							<path style="fill:#37232E;" d="M156.586,172.278c1.519-0.781,4.232-1.954,7.45-2.361c1.184-0.15,2.057-1.178,1.93-2.365
								c-0.008-0.07-0.016-0.142-0.025-0.214c-0.157-1.192-1.308-1.99-2.494-1.791c-1.891,0.318-5.012,1.202-8.658,3.648
								c-0.684,0.459-1.014,1.32-0.741,2.098c0.007,0.019,0.013,0.037,0.02,0.056C154.435,172.351,155.637,172.766,156.586,172.278z
								"/>
							<path style="fill:#37232E;" d="M199.432,167.255c-1.467-0.285-4.008-0.588-6.678-0.023c-0.982,0.208-2.028-0.5-2.344-1.648
								c-0.019-0.068-0.037-0.137-0.055-0.207c-0.294-1.163,0.33-2.249,1.331-2.411c1.596-0.258,4.358-0.346,8.077,0.874
								c0.699,0.229,1.259,0.939,1.317,1.748c0.001,0.019,0.003,0.039,0.004,0.058C201.147,166.692,200.348,167.433,199.432,167.255
								z"/>
						</g>
					</g>
				</g>
			</g>
		</g>
	</g>
	<g>
		<g>
			<g>
				<path style="fill:#EC665D;" d="M380.75,430.905h-96.9c0,0-0.22-11.82-1.11-28.94c-0.89-17.11-4-66-5.55-82.22
					c-1.56-16.22-5-28-5-28s2.38-3.24,8.8-6.19c3.39-1.56,7.92-3.03,13.81-3.92c14.57-2.19,36.31-0.56,49.54,2.32
					c0.83,0.18,1.67,0.39,2.55,0.77c1.49,0.67,3.07,1.83,4.91,4.23c0,0,5.39,10.79,13.17,41.68S378.97,413.615,380.75,430.905z"/>
				<path style="opacity:0.25;fill:#772525;" d="M346.89,284.725c-1.56,5.84-5.56,16.52-14.92,23.12
					c-13.41,9.46-28.69,5.39-32.21,29.39c-2.62,17.84,0.22,62.85,2.83,93.67h-18.74c0,0-0.22-11.82-1.11-28.94
					c-0.89-17.11-4-66-5.55-82.22c-1.56-16.22-5-28-5-28s2.38-3.24,8.8-6.19c3.39-1.56,7.92-3.03,13.81-3.92
					c14.57-2.19,36.31-0.56,49.54,2.32C345.17,284.135,346.01,284.345,346.89,284.725z"/>
				<path style="fill:#FFDDC1;" d="M344.34,283.955c-1.26,7.23-6.42,23.73-27.32,23.89c-21.87,0.17-32.76-16.26-36.03-22.29
					c3.39-1.56,7.92-3.03,13.81-3.92C309.37,279.445,331.11,281.075,344.34,283.955z"/>
			</g>
			<g>
				<path style="fill:#EC665D;" d="M279.34,347.685c-1.75-1.19-4.12-2.1-6.84-2.74c-6.99-1.67-16.29-1.62-23.41-0.25
					c-4.98,0.96-8.89,2.57-10.19,4.69c-3.66,6.01,3.6,8.03,4.35,8.22c-7.66-1.17-8.47-4.93-6.55-14.82
					c0.04-0.23,0.09-0.46,0.13-0.69c1.83-9.61,2.83-17.62,11.71-34.25c9.09-17.03,23.65-16.1,23.65-16.1
					c6.58,21.84,6.59,39.66,7,48.83C279.4,345.165,279.34,347.685,279.34,347.685z"/>
				<path style="fill:#772525;" d="M236.496,350.215c-0.661,5.659,6.474,9.094,13.344,8.037c6.87-1.057,0.106-18.161-6.87-14.614
					C235.994,347.185,236.496,350.215,236.496,350.215z"/>
				<path style="fill:#FFDDC1;" d="M279.34,347.685c-9.42-6.39-36.58-4.63-40.44,1.7c-3.66,6.01,3.6,8.03,4.35,8.22
					c-7.66-1.17-8.47-4.93-6.55-14.82c0.04-0.23,0.09-0.46,0.13-0.69c6.1-3.85,19.49-8.98,42-1.64c0.12,0.04,0.24,0.08,0.36,0.12
					C279.4,345.165,279.34,347.685,279.34,347.685z"/>
				<path style="opacity:0.25;fill:#772525;" d="M279.34,347.685c-1.75-1.19-4.12-2.1-6.84-2.74c0.28-14.38,0.13-39.14-3.95-44.06
					c-5.16-6.23-19.75,19.18-19.46,43.81c-4.98,0.96-8.89,2.57-10.19,4.69c-3.66,6.01,3.6,8.03,4.35,8.22
					c-7.66-1.17-8.47-4.93-6.55-14.82c0.04-0.23,0.09-0.46,0.13-0.69c1.83-9.61,2.83-17.62,11.71-34.25
					c9.09-17.03,23.65-16.1,23.65-16.1c6.58,21.84,6.59,39.66,7,48.83C279.4,345.165,279.34,347.685,279.34,347.685z"/>
			</g>
			<g>
				<g>
					<path style="fill:#FDA37E;" d="M409.03,424.255c-0.01,0.01-0.02,0.03-0.03,0.04c-0.71,0.87-1.41,1.66-2.11,2.38
						c-0.01,0.01-0.02,0.02-0.02,0.02c-5.45,5.53-11.42,6.8-26.12,7.14c-16.63,0.39-29.66-3.79-39.97-2.93
						c-10.32,0.85-11.14-5.83-14.31-4.78s-1.8,4.78-4.67,6.99c-2.88,2.21-5.23-1.35-5.23-1.35s-2.1,1.95-3.9,1.16
						c-1.81-0.78-1.94-3.66-1.94-3.66s-0.7,1.64-2.27,1.72c-1.57,0.09-2.62-1.72-2.62-1.72c-0.56,1.55-1.35,1.91-2.12,1.64
						c-0.67-0.2-1.32-0.88-1.8-1.64c-1.04-1.64-1.83-12.03,9.68-16.48c11.5-4.44,20.66,0,30.34,0c9.67,0,12.03-2.87,25.61-8.11
						c3.95-1.52,7.4-2.71,10.5-3.6c1.76-0.51,3.4-0.91,4.95-1.22c5.17-1.04,9.39-1.05,13.6-0.14c9.11,1.94,14.07,8.05,15.03,14.21
						C412.22,417.655,411.34,421.395,409.03,424.255z"/>
					<g style="opacity:0.32;">
						<g>
							<path style="fill:#422214;" d="M316.566,431.767c-0.456-1.055-0.573-2.245-0.482-3.403c0.087-1.165,0.415-2.311,0.913-3.373
								c0.542-1.037,1.198-2.021,2.037-2.823c0.387-0.431,0.872-0.759,1.308-1.125c0.474-0.324,0.967-0.618,1.467-0.886
								c-0.367,0.446-0.768,0.835-1.138,1.25c-0.345,0.439-0.737,0.827-1.051,1.277c-0.677,0.86-1.238,1.786-1.723,2.743
								c-0.472,0.965-0.81,1.989-1.043,3.047C316.631,429.534,316.518,430.63,316.566,431.767z"/>
						</g>
						<g>
							<path style="fill:#422214;" d="M310.729,429.264c-0.125-1.175-0.029-2.36,0.173-3.524c0.208-1.164,0.536-2.316,1.035-3.408
								c0.513-1.082,1.154-2.124,2.011-2.986c0.865-0.85,1.931-1.499,3.074-1.789c-0.975,0.676-1.794,1.434-2.489,2.306
								c-0.67,0.892-1.22,1.864-1.686,2.883c-0.485,1.012-0.837,2.092-1.189,3.177C311.322,427.015,311.017,428.124,310.729,429.264
								z"/>
						</g>
						<g>
							<path style="fill:#422214;" d="M305.843,429.264c-0.293-1.209-0.322-2.473-0.203-3.718c0.118-1.248,0.436-2.48,0.908-3.654
								c0.474-1.174,1.16-2.268,2.01-3.203c0.818-0.968,1.893-1.682,2.991-2.232c-0.865,0.896-1.727,1.722-2.383,2.721
								c-0.675,0.971-1.268,1.994-1.695,3.096C306.562,424.457,306.092,426.812,305.843,429.264z"/>
						</g>
					</g>
				</g>
				<g>
					<path style="fill:#FDA37E;" d="M411.63,413.925c0.08,4.42-0.75,7.69-2.6,10.33c-0.01,0.01-0.02,0.03-0.03,0.04
						c-0.59,0.86-1.3,1.64-2.11,2.38c-0.01,0.01-0.02,0.02-0.02,0.02c-1.71,1.55-3.9,2.9-6.61,4.21
						c-9.37,4.53-16.14-9.56-20.57-24.06c-0.59-1.93-1.14-3.87-1.64-5.77c-0.69-2.55-1.29-5.03-1.83-7.35c0-0.01,0-0.02-0.01-0.03
						c-2.01-14.64-4.53-30.97-7.37-45.48c4.16-1.31,12.59-4.41,19.39-9.59c0,0,1.17,2.68,2.98,7.04
						c4.63,11.2,13.47,33.48,17.42,49.86C410.52,403.355,411.57,409.275,411.63,413.925z"/>
					<path style="opacity:0.23;fill:#913E3C;" d="M383,399.855c0.55,2.17,0.91,3.76,0.97,4.47c0.06,0.76-1.64,1.61-4.28,2.52
						c-6.94,2.37-20.43,5.08-25.67,7.24c-7.22,2.98-22.13-3.47-34.94-0.84c-11.61,2.39-17.28,8.34-15.36,17.66
						c-0.67-0.2-1.32-0.88-1.8-1.64c-1.04-1.64-1.83-12.03,9.68-16.48c11.5-4.44,20.66,0,30.34,0c9.67,0,12.03-2.87,25.61-8.11
						c3.95-1.52,7.4-2.71,10.5-3.6c-0.69-2.55-1.29-5.03-1.83-7.35c0-0.01,0-0.02-0.01-0.03c-2.01-14.64-4.53-30.97-7.37-45.48
						c4.16-1.31,12.59-4.41,19.39-9.59c0,0,1.17,2.68,2.98,7.04c-3.22,1.6-7.74,3.92-11.54,6.19c-6.75,4.04-5.19,10.41-3,22.09
						C378.3,382.615,381.41,393.625,383,399.855z"/>
				</g>
			</g>
			<g>
				<path style="fill:#EC665D;" d="M390.53,341.515c-2.57,1.59-8.09,4.67-15.83,7.15c-1.72,0.56-3.54,1.08-5.47,1.55
					c0,0-0.61-2.78-1.68-7.22c-2.2-9.18-6.32-25.48-10.93-39.01c-2.51-7.36-5.16-13.91-7.73-18.05c0,0,10.31-4.44,21.03,10.73
					c8.23,11.65,16.15,27.12,19.98,36.83c0.76,1.93,1.36,3.63,1.77,5.02C392.01,339.665,391.55,340.885,390.53,341.515z"/>
				<path style="fill:#FFDDC1;" d="M390.53,341.515c-3.138,1.942-10.684,6.108-21.3,8.7c0,0-0.61-2.78-1.68-7.22
					c5.66-1.03,15.08-3.55,22.35-9.5c0.761,1.929,1.363,3.626,1.772,5.022C392.007,339.664,391.546,340.886,390.53,341.515z"/>
				<path style="opacity:0.25;fill:#772525;" d="M374.7,348.665c-1.72,0.56-3.54,1.08-5.47,1.55c0,0-0.61-2.78-1.68-7.22
					c-2.2-9.18-6.32-25.48-10.93-39.01c0.33,0.11,0.68,0.35,1.04,0.73C363.74,311.075,371.51,337.195,374.7,348.665z"/>
			</g>
		</g>
		<g>
			<g>
				<path style="fill:#FDA37E;" d="M337.97,282.925c0,0-1.61,6.73-7.04,11.89c-3.19,3.03-7.71,5.51-13.99,5.75
					c-16.96,0.65-27.16-17.84-27.16-17.84c3.02-2.27,8.03-5.93,8.36-14.25c0.31-8.08-2.83-15.33-3.02-15.76
					c13.85,15.64,33.5,9.7,33.5,9.7s-0.01,2.14,0.26,5c0.25,2.7,0.76,6.04,1.75,8.82C332.69,281.965,337.97,282.925,337.97,282.925z
					"/>
				<path style="opacity:0.23;fill:#913E3C;" d="M330.93,294.815c-3.19,3.03-7.71,5.51-13.99,5.75
					c-16.96,0.65-27.16-17.84-27.16-17.84c3.02-2.27,8.03-5.93,8.36-14.25c0.31-8.08-2.83-15.33-3.02-15.76
					c13.85,15.64,33.5,9.7,33.5,9.7s-0.01,2.14,0.26,5c-3.94,0.63-8.63,1.08-13.01,0.73c-10.22-0.82-12.01-1.01-14.5,8.49
					C298.91,285.975,310.96,304.115,330.93,294.815z"/>
			</g>
			<g>
				<g>
					<path style="fill:#422214;" d="M279.894,239.753c0,0-5.701,4.584-11.348,3.03c-5.647-1.554-4.439-7.906-2.814-8.462
						c0,0-9.913,0.824-12.321-10.083c-2.408-10.907,5.098-16.177,8.922-17.083c0,0-8.014,0.936-9.389-5.862
						c-1.374-6.798,7.548-10.905,9.813-11.613c0,0-7.789-1.558-7.364-14.445c0.425-12.887,13.152-12.604,13.152-12.604
						s0.868-9.443,9.365-11.754c8.497-2.312,15.093,3.965,15.093,3.965s12.098-16.428,25.977-15.012
						c13.879,1.416,8.639,17.561,8.639,17.561s23.225-15.578,32.147-6.09c8.922,9.489,0.694,20.252-6.097,25.633
						c0,0,8.221-4.457,12.328,2.87c4.107,7.327-6.939,19.74-10.763,20.968c0,0,6.231,11.616-5.806,17.185
						C349.429,217.958,340.365,237.002,279.894,239.753z"/>
					<g>
						<path style="fill:#FDA37E;" d="M335.92,262.745c-22.59,3.8-33.64,1.5-38.93-5.29c-5.29-6.79-7.13-17.7-7.13-17.7
							s-0.1,0.24-0.35,0.59c-0.81,1.17-3.21,3.52-8.62,1.87c-7.02-2.13-12.31-15-5.64-19.72c6.67-4.73,11.97,1.42,11.97,1.42
							l0.01-0.02c0.12-0.15,0.93-1.24,1.2-2.9v-0.01c0.13-0.74,0.14-1.59-0.06-2.53c-0.69-3.22-4.83-4.97-4.83-4.97
							s4.71-1.54,4.71-6.39c0-4.86-4.48-8.31-4.48-8.31s5.17-0.42,6.67-5.27c1.49-4.85-0.81-9.79-0.81-9.79s2.53,2.76,6.9,2.53
							c4.37-0.23,5.06-3.11,5.06-3.11s2.27,7.59,8.38,6.56c6.06-1.03,5.36-7.58,4.11-9.83c0.48,0.74,4.62,6.93,10.99,6.49
							c6.78-0.46,6.9-6.56,6.9-6.56s0.31,4.15,3.95,6.1c3.63,1.96,5.24-0.57,5.24-0.57s0.36,0.59,0.98,1.79
							c2.1,4.07,7.16,15.1,10.99,33.36c1.17,5.57,2.08,10.66,2.49,15.23c0.06,0.54,0.1,1.07,0.14,1.6
							C356.7,251.175,352.55,259.945,335.92,262.745z"/>
						<path style="opacity:0.23;fill:#913E3C;" d="M335.92,262.745c-22.59,3.8-33.64,1.5-38.93-5.29c-5.29-6.79-7.13-17.7-7.13-17.7
							s-0.1,0.24-0.35,0.59c-0.81,1.17-3.21,3.52-8.62,1.87c-7.02-2.13-12.31-15-5.64-19.72c6.67-4.73,11.97,1.42,11.97,1.42
							l0.01-0.02c0.12-0.15,0.93-1.24,1.2-2.9v-0.01c0.13-0.74,0.14-1.59-0.06-2.53c-0.69-3.22-4.83-4.97-4.83-4.97
							s4.71-1.54,4.71-6.39c0-4.86-4.48-8.31-4.48-8.31s5.17-0.42,6.67-5.27c1.49-4.85-0.81-9.79-0.81-9.79s2.53,2.76,6.9,2.53
							c4.37-0.23,5.06-3.11,5.06-3.11s2.27,7.59,8.38,6.56c6.06-1.03,5.36-7.58,4.11-9.83c0.48,0.74,4.62,6.93,10.99,6.49
							c6.78-0.46,6.9-6.56,6.9-6.56s0.31,4.15,3.95,6.1c3.63,1.96,5.24-0.57,5.24-0.57s0.36,0.59,0.98,1.79
							c-1.94,2.38-5.36,4.32-10.43-0.57c0,0-7.06,6.06-13.93,1.06c0,0-3.42,7.68-13.05,6.48c0,0-0.85,5.47-7.63,5.27
							c0,0,2.51,7.33,0,10.59c0,0-1.75,23.31,6.27,26.58c7.22,2.94,35.36-10.33,52.25-0.82c0.06,0.54,0.1,1.07,0.14,1.6
							C356.7,251.175,352.55,259.945,335.92,262.745z"/>
						<path style="fill:#422214;" d="M335.92,262.745c-22.59,3.8-33.64,1.5-38.93-5.29c-5.29-6.79-7.13-17.7-7.13-17.7
							s-0.1,0.24-0.35,0.59c-0.93-8.36-2.29-16.43-2.29-16.43l0.01-0.02l1.2-2.9c3.98,18.5,6.84,24.27,13.16,24.61
							c6.33,0.35,10.36-7.59,28.3-10.68c17.95-3.08,25.87,2.39,25.87,2.39C356.7,251.175,352.55,259.945,335.92,262.745z"/>
						<g style="opacity:0.48;">
							<path style="fill:#422214;" d="M276.403,233.182c-0.285-1.543-0.241-3.19,0.357-4.721c0.324-0.753,0.841-1.441,1.513-1.956
								c0.681-0.513,1.502-0.779,2.321-0.926c0.837-0.164,1.758-0.018,2.531,0.374c0.787,0.38,1.42,0.986,1.931,1.649
								c1.012,1.349,1.548,2.967,1.701,4.616c0.063,0.828,0.022,1.675-0.206,2.502c-0.218,0.821-0.64,1.649-1.354,2.229
								c-0.355,0.28-0.762,0.509-1.196,0.625c-0.213,0.079-0.434,0.096-0.654,0.119c-0.221,0.013-0.436,0.071-0.662,0.04
								c-0.92-0.009-1.806-0.573-2.273-1.314c-0.481-0.741-0.69-1.604-0.661-2.435c0.021-0.828,0.178-1.662,0.571-2.392
								c0.704-1.508,2.332-2.459,3.902-2.438c-1.557,0.216-2.956,1.21-3.457,2.644c-0.312,0.679-0.41,1.443-0.385,2.173
								c0.012,0.736,0.254,1.46,0.658,2.005c0.41,0.541,1.007,0.883,1.682,0.881c0.676-0.03,1.38-0.179,1.868-0.636
								c1.026-0.875,1.296-2.481,1.169-3.924c-0.115-1.47-0.606-2.949-1.462-4.133c-0.827-1.201-2.166-2.012-3.606-1.827
								c-0.728,0.089-1.45,0.276-2.057,0.681c-0.601,0.407-1.087,0.98-1.433,1.647C276.503,230.014,276.338,231.623,276.403,233.182
								z"/>
						</g>
					</g>
				</g>
				<g>
					<g>
						<g>
							<path style="fill:#422214;" d="M342.009,213.035c0.485,2.186-0.037,4.16-1.165,4.411c-1.128,0.25-2.436-1.319-2.92-3.505
								c-0.485-2.186,0.037-4.161,1.165-4.411C340.217,209.28,341.525,210.849,342.009,213.035z"/>
							<path style="fill:#422214;" d="M314.53,223.885c-1.13,0.25-2.44-1.32-2.92-3.5c-0.21-0.93-0.23-1.83-0.1-2.56
								c0.97-0.12,2.07-0.35,3.16-0.76c0.44,0.62,0.81,1.46,1.02,2.41C316.18,221.665,315.66,223.635,314.53,223.885z"/>
						</g>
					</g>
					<path style="fill:none;stroke:#422214;stroke-linecap:round;stroke-linejoin:round;stroke-miterlimit:10;" d="M318.04,215.005
						c-1.02,0.96-2.2,1.61-3.37,2.06c-1.09,0.41-2.19,0.64-3.16,0.76c-1.98,0.26-3.47,0.06-3.47,0.06"/>
					<path style="fill:none;stroke:#7F4733;stroke-linejoin:round;stroke-miterlimit:10;" d="M318.04,244.685
						c0,0,7.595-6.442,20.019-4.601"/>
					<path style="opacity:0.78;fill:#AA4D44;" d="M325.636,207.301c1.055-1.785,6.787,8.374,9.662,16.61
						c2.876,8.236-5.065,10.307-7.249,6.741C325.866,227.086,324.14,209.832,325.636,207.301z"/>
					<g>
						<g>
							<path style="fill:#422214;" d="M303.665,210.522c0,0,6.63-0.575,9.986-2.416c3.357-1.84,4.162-4.716,3.817-6.212
								c-0.345-1.495-2.416-1.495-3.336,0c-0.92,1.495-1.15,3.019-6.557,3.753C302.17,206.381,301.25,209.602,303.665,210.522z"/>
							<path style="fill:#422214;" d="M333.228,204.062c-2.569-0.026-0.761-4.624,1.495-7.114c3.336-3.681,8.167-4.256,8.282-2.416
								c0.115,1.84-2.168,0.951-4.946,4.37C335.918,201.536,335.918,204.089,333.228,204.062z"/>
						</g>
					</g>
					<g style="opacity:0.65;">
						<g>
							<path style="fill:#AA4D44;" d="M303.931,228.626c2.587,1.138,0,7.063-3.001,6.222
								C297.929,234.008,301.344,227.488,303.931,228.626z"/>
							<path style="fill:#AA4D44;" d="M310.367,228.018c2.587,1.138,0,7.063-3.001,6.222
								C304.365,233.399,307.78,226.88,310.367,228.018z"/>
						</g>
						<g>
							<path style="fill:#AA4D44;" d="M346.821,219.674c2.364,1.04,0,6.453-2.742,5.685
								C341.337,224.591,344.457,218.634,346.821,219.674z"/>
							<path style="fill:#AA4D44;" d="M352.7,219.118c2.364,1.04,0,6.453-2.742,5.685
								C347.217,224.035,350.337,218.078,352.7,219.118z"/>
						</g>
					</g>
				</g>
			</g>
		</g>
		<g>
			<g>
				<path style="fill:#FDA37E;" d="M280.99,407.805c-0.08,0.33-0.19,0.66-0.33,0.99c-2.9,6.96-18.91,15.01-30.74,4.02
					c-12.4-11.53-9.09-21.82-7.44-37.8c1.65-15.98,2.54-29.3,2.54-29.3c0.01-0.01,0.02-0.01,0.03-0.02
					c7.86-2.46,20.97-2.82,29.42-0.21c1.89,0.57,3.54,1.3,4.85,2.18c0.01,0.01,0.02,0.02,0.02,0.02
					C279.83,352.865,282.67,400.675,280.99,407.805z"/>
				<path style="opacity:0.23;fill:#913E3C;" d="M280.66,408.795c-2.9,6.96-18.91,15.01-30.74,4.02
					c-12.4-11.53-9.09-21.82-7.44-37.8c1.65-15.98,2.54-29.3,2.54-29.3c0.01-0.01,0.02-0.01,0.03-0.02
					c7.86-2.46,20.97-2.82,29.42-0.21l-0.18,1.68c0,0-12.18-1.05-18.5,0c-6.32,1.06-9.43,33.77-9.4,44.13
					c0.04,10.35,3.08,21.93,19.16,23.31C271.91,415.155,276.92,412.365,280.66,408.795z"/>
			</g>
			<g>
				<path style="fill:#FDA37E;" d="M335.96,289.915c-1.42-1.74-2.37-5.54-2.37-5.54s-1.27,1.27-3.48,2.53
					c-2.22,1.27-2.69,3.01-2.85,3.48c-0.16,0.48,0.95,3.31-2.3,8.3c-3.24,5-3.08,6.9-4.98,14.02c-1.9,7.12-18.82,54.75-23.25,66.45
					c-2.1,5.54-4.73,11.43-7.63,16.9c0,0,0,0.01-0.01,0.02c-2.01,3.8-4.15,7.39-6.34,10.51c-1.32,1.89-2.66,3.61-4,5.1
					c-6.72,7.51-17.88,9.12-26.62,2.93c-5.32-3.76-6.62-9.87-5.19-16.56c0.9-4.29,2.93-8.82,5.74-13.12
					c2.83-4.34,7.38-12.27,12.12-20.7c2.49-4.41,5.02-8.95,7.39-13.19c0.71-1.28,1.41-2.57,2.09-3.88c0.01,0,0.01,0,0.01,0v-0.01
					c5.95-11.3,10.95-23.4,17.23-33.02c7.02-10.74,11.3-28.59,12.4-35.37c1.1-6.79,8.54-13.12,15.98-17.26
					c4.7-2.61,7.71-3.3,9.65-2.1c1.13,0.68,1.89,2.01,2.42,3.96c0,0,4.93,0.11,5.52,7.53c0,0,2.46,2.5,0.57,6.87
					c0,0,2.02-0.19,2.65,6.45C341.34,290.865,337.39,291.655,335.96,289.915z"/>
				<path style="opacity:0.23;fill:#913E3C;" d="M282.75,406.585c-1.32,1.89-2.66,3.61-4,5.1c-6.72,7.51-17.88,9.12-26.62,2.93
					c-5.32-3.76-6.62-9.87-5.19-16.56c1.41,8.11,6,15.47,18.61,16.55C273.18,415.255,278.87,411.115,282.75,406.585z"/>
				<path style="opacity:0.23;fill:#913E3C;" d="M329.55,259.405c-3.58,2.1-6.45,1.89-9.97,4.25c-1.86,1.25-5.91,5.21-7.64,6.62
					c-5.22,4.27-4.48,11.58-5.84,18.18c-3.34,16.16-9.42,31.75-17.89,45.9c-6.14,10.24-13.64,20.02-16.49,31.62
					c-1.05,4.27-1.43,8.69-2.53,12.95c-1.1,4.26-3.04,8.5-6.5,11.21c0.09-6.21,0.44-12.41,1.05-18.59c0.25-2.45,0.53-4.91,1.06-7.31
					c2.49-4.41,5.02-8.95,7.39-13.19c6.91-12.35,12.32-26.18,19.33-36.91c7.02-10.74,11.3-28.59,12.4-35.37
					c1.1-6.79,8.54-13.12,15.98-17.26C324.6,258.895,327.61,258.205,329.55,259.405z"/>
				<g style="opacity:0.33;">
					<g>
						<g>
							<path style="fill:#422214;" d="M331.97,263.364c-1.671,0.2-3.179,0.885-4.665,1.588c-1.477,0.729-2.919,1.536-4.326,2.404
								c-2.829,1.719-5.552,3.594-8.271,5.566c2.191-2.563,4.888-4.65,7.753-6.421c1.446-0.867,2.947-1.658,4.535-2.262
								C328.564,263.636,330.283,263.172,331.97,263.364z"/>
						</g>
						<g>
							<path style="fill:#422214;" d="M337.49,270.893c-1.539-0.835-3.282-0.543-4.862-0.157c-1.597,0.443-3.139,1.112-4.623,1.897
								c-1.487,0.781-2.944,1.635-4.374,2.548l-4.305,2.772c0.599-0.617,1.232-1.195,1.861-1.783c0.66-0.548,1.3-1.127,1.999-1.63
								c1.36-1.058,2.832-1.972,4.359-2.794c1.54-0.792,3.177-1.457,4.914-1.768c0.869-0.145,1.758-0.211,2.641-0.106
								C335.97,270.01,336.858,270.293,337.49,270.893z"/>
						</g>
						<g>
							<path style="fill:#422214;" d="M338.059,277.764c-1.383-0.082-2.715,0.063-3.988,0.428c-1.271,0.364-2.496,0.891-3.682,1.514
								c-2.386,1.23-4.642,2.748-7.05,4.102c1.924-1.979,4.122-3.685,6.592-4.991c1.243-0.631,2.57-1.155,3.972-1.385
								C335.297,277.171,336.76,277.3,338.059,277.764z"/>
						</g>
					</g>
				</g>
			</g>
		</g>
	</g>
	<g>
		<g>
			<g>
				<path style="fill:#FDB757;" d="M536.97,274.895c0,0-1.62,9.62-3.83,22.85c-0.82,4.91-1.72,10.31-2.64,15.9
					c-1.01,6.04-2.04,12.31-3.04,18.41c-0.9,5.5-1.77,10.86-2.56,15.8c-0.12,0.73-0.24,1.45-0.35,2.16
					c-0.79,4.94-1.36,9.9-1.75,14.76c-0.45,5.51-0.68,10.88-0.8,15.95c-0.14,6.42-0.1,12.34-0.05,17.42
					c0.07,7.68,0.15,13.42-0.44,15.94c-0.04,0.19-0.09,0.37-0.14,0.52c-1.87,5.53-9.53,9.42-17.57,6.05
					c-5.78-2.42-10.49-5.32-13.32-13.85c-1.1-3.33-1.91-7.52-2.38-12.87c-0.16-1.76-0.25-3.7-0.27-5.77
					c-0.07-4.72,0.17-10.15,0.61-15.85c0.44-5.53,1.07-11.31,1.83-16.95c0.76-5.78,1.65-11.41,2.56-16.45
					c1.25-6.86,2.55-12.63,3.67-16.23c0-0.01,0.01-0.03,0.01-0.04c2.17-6.97,3.26-12.26,4.74-17.81c1.2-4.48,2.67-9.14,5.17-14.99
					c0.07-0.17,0.15-0.34,0.23-0.51c5.68-12.61,17.22-14.28,22.83-15.47C535.16,272.655,536.97,274.895,536.97,274.895z"/>
				<g>
					<g>
						<path style="fill:#FF9545;" d="M533.14,297.745c-0.82,4.91-1.72,10.31-2.64,15.9c-8.53-1.69-19.85-4.7-29.25-8.81
							c1.2-4.48,2.67-9.14,5.17-14.99c0.07-0.17,0.15-0.34,0.23-0.51C513.05,292.005,522.29,295.355,533.14,297.745z"/>
						<path style="fill:#FF9545;" d="M527.46,332.055c-0.9,5.5-1.77,10.86-2.56,15.8c-8.29-1.35-21.24-4.44-32.07-8.94
							c1.25-6.86,2.55-12.63,3.67-16.23C503.73,325.715,514.66,329.635,527.46,332.055z"/>
						<path style="fill:#FF9545;" d="M522.8,364.775c-0.45,5.51-0.68,10.88-0.8,15.95c-6.87-0.73-21.17-3.68-33.56-8.41
							c0.44-5.53,1.07-11.31,1.83-16.95C497.99,358.535,509.49,362.525,522.8,364.775z"/>
						<path style="fill:#FF9545;" d="M521.51,414.085c-5.98-0.52-19-3.08-31.03-7.28c-1.1-3.33-1.91-7.52-2.38-12.87
							c-0.16-1.76-0.25-3.7-0.27-5.77c7.78,3.27,19.94,7.61,34.12,9.98C522.02,405.825,522.1,411.565,521.51,414.085z"/>
					</g>
				</g>
			</g>
			<g>
				<path style="fill:#FDB757;" d="M633.88,430.905H520.01c0,0-0.42-6.13-0.77-14.83c-0.23-5.59-0.42-12.25-0.46-19.02
					c-0.04-7.89,0.12-15.94,0.71-22.63c0.15-1.67,0.32-3.25,0.52-4.73c0.6-4.41,1.35-9.81,2.17-15.69
					c0.95-6.76,1.99-14.15,3.04-21.38c0.95-6.6,1.9-13.05,2.77-18.76c1.1-7.26,2.07-13.32,2.74-16.93c0.04-0.26,0.09-0.51,0.13-0.74
					c2.16-11.31,2.25-21.68,6.11-23.34c3.86-1.67,2.83-0.97,5.13-4.29c2.29-3.31,7.99-2.83,18.44-1.41
					c10.44,1.42,22.55,1.41,30.62,1.41c8.07,0.01,17.56-0.93,22.31,1.21c4.75,2.13,8.31,1.87,10.44,6.86
					c0.12,0.27,0.24,0.61,0.35,1.02c1.05,3.44,2.36,11.65,3.35,21.36c0.56,5.54,1.01,11.56,1.25,17.47
					c0.22,5.34,0.26,10.59,0.05,15.3c0,0.06-0.01,0.11-0.01,0.17c-0.26,5.61,0,11.87,0.53,19.05c0.46,6.25,1.11,13.21,1.77,21.06
					c0.54,6.39,1.09,13.36,1.54,21.04c0.4,6.62,0.73,13.77,0.93,21.5C633.8,419.765,633.88,425.195,633.88,430.905z"/>
				<g>
					<g>
						<path style="fill:#FF9545;" d="M628.86,316.485c-18.19,0.1-67,0.09-100.87-2.62c1.1-7.26,2.07-13.32,2.74-16.93
							c18.77,1.48,64.01,4.5,96.88,2.08C628.17,304.555,628.62,310.575,628.86,316.485z"/>
						<path style="fill:#FF9545;" d="M629.43,351.005c-21.19,1.28-66.47,3.6-107.25,3c0.95-6.76,1.99-14.15,3.04-21.38
							c26.98,0.41,71.8,0.72,103.69-0.84c0,0.06-0.01,0.11-0.01,0.17C628.64,337.565,628.9,343.825,629.43,351.005z"/>
						<path style="fill:#FF9545;" d="M632.74,393.105c-18.94,1.21-72.98,4.37-113.96,3.95c-0.04-7.89,0.12-15.94,0.71-22.63
							c28.32-0.38,75.75-1.13,111.71-2.36C631.74,378.455,632.29,385.425,632.74,393.105z"/>
						<path style="fill:#FF9545;" d="M633.88,430.905H520.01c0,0-0.42-6.13-0.77-14.83c30.77-0.37,78.86-0.93,114.43-1.47
							C633.8,419.765,633.88,425.195,633.88,430.905z"/>
					</g>
				</g>
				<path style="opacity:0.17;fill:#913E3C;" d="M633.88,430.905h-99.72c-0.02-2.24,0.28-4.63,0.99-7.25
					c1.97-7.25,12.27-4.51,16.37-5.91c4.1-1.39,26.06-8.93,30.46-10.33c4.4-1.4,21.86-8.38,24.51-14.77
					c2.66-6.39,0.98-16.51,0.2-24.6c-0.78-8.09,1.06-27.66,0-41.91c-1.06-14.24,2.84-29.53,2.84-29.53l14.73-18.95
					c1.05,3.44,2.36,11.65,3.35,21.36c0.56,5.54,1.01,11.56,1.25,17.47c0.22,5.34,0.26,10.59,0.05,15.3c0,0.06-0.01,0.11-0.01,0.17
					c-0.26,5.61,0,11.87,0.53,19.05c0.46,6.25,1.11,13.21,1.77,21.06c0.54,6.39,1.09,13.36,1.54,21.04
					c0.4,6.62,0.73,13.77,0.93,21.5C633.8,419.765,633.88,425.195,633.88,430.905z"/>
			</g>
			<g>
				<path style="fill:#FDB757;" d="M659.79,423.495c-0.54,1.61-1.13,3.13-1.8,4.57c-3.07,6.7-7.79,11.77-17.65,17.06
					c-2.77,1.49-5.95,2.99-9.61,4.55c-8.43,3.59-16.93,6.1-24.04,7.97c-9.35,2.45-16.33,3.79-17.66,5.02
					c-0.78,0.73-1.69,1.27-2.74,1.71c-2.07,0.86-4.67,1.3-7.91,1.9c-3.06,0.57-4.98,2.92-8.49,3.96c-2.08,0.61-4.72,0.77-8.48-0.17
					c-10.11-2.52-20.4-21.84-22.74-28.7c-2.35-6.86-4.88-14.62,0-17.33c4.87-2.7,5.41-0.4,9.02-1.28c2.04-0.5,8.22-2.89,15.04-5.47
					c5.25-1.99,10.88-4.09,15.29-5.51c0.5-0.16,1.02-0.32,1.54-0.49c5.28-1.63,11.49-3.26,17.39-5.32c3.17-1.11,6.25-2.35,9.05-3.78
					c1.82-0.93,3.52-1.95,5.05-3.06c0.59-0.43,1.11-0.86,1.58-1.32c4.19-3.98,3.69-8.6,2.84-14.06c-0.45-2.88-0.99-5.98-0.99-9.35
					c0-4.5-0.17-9.44-0.45-14.36c-0.34-6.02-0.84-12.01-1.39-17.06c-0.05-0.42-0.09-0.84-0.14-1.25c-0.81-7-2.24-10.83-2.98-19.08
					c-0.24-2.7-0.41-5.88-0.45-9.8c-0.02-2.11-0.03-4.29,0-6.5c0.14-11.21,1.28-22.97,6.72-29.26c1.53-1.76,3.39-3.09,5.66-3.86
					c3.16-1.07,12.53,0.62,19.57,10.55c3.33,4.7,6.54,9.16,9.35,15.65c1.67,3.87,3.2,8.46,4.51,14.26
					c1.15,5.02,2.13,10.95,2.93,18.1c0.12,1.13,0.25,2.22,0.37,3.27c0.81,7.35,1.44,12.99,1.93,17.52
					c1.28,11.69,1.66,15.96,2.03,23.09c0.07,1.3,0.14,2.6,0.2,3.9c0.34,6.18,0.73,12.23,1.4,16.89c0.3,2.12,0.67,3.95,1.11,5.38
					C666.47,407.065,663.58,412.305,659.79,423.495z"/>
				<g>
					<g>
						<path style="fill:#FF9545;" d="M654.88,313.685c-6.07,2.75-20.43,7.83-45.36,8.96c-0.24-2.7-0.41-5.88-0.45-9.8
							c-0.02-2.11-0.03-4.29,0-6.5c10.96-0.86,28.53-2.81,41.3-6.92C652.04,303.295,653.57,307.885,654.88,313.685z"/>
						<path style="fill:#FF9545;" d="M660.11,352.575c-7.46,2.96-22.11,7.13-46.08,7.46c-0.34-6.02-0.84-12.01-1.39-17.06
							c11.59-0.88,29.2-2.98,45.54-7.92C658.99,342.405,659.62,348.045,660.11,352.575z"/>
						<path style="fill:#FF9545;" d="M663.74,396.455c-9.48,2.67-28.54,6.3-51.11,1.35c4.19-3.98,3.69-8.6,2.84-14.06
							c10.52,0.14,28.76-0.34,46.87-4.18C662.68,385.745,663.07,391.795,663.74,396.455z"/>
						<path style="fill:#FF9545;" d="M657.99,428.065c-3.07,6.7-7.79,11.77-17.65,17.06c-11.23-2.84-30.71-11.68-43.39-39.16
							c3.17-1.11,6.25-2.35,9.05-3.78C613.55,410.915,631.57,427.855,657.99,428.065z"/>
						<path style="fill:#FF9545;" d="M606.69,457.645c-9.35,2.45-16.33,3.79-17.66,5.02c-0.78,0.73-1.69,1.27-2.74,1.71
							c-8.33-11.52-20-29.96-23.56-47.09c5.25-1.99,10.88-4.09,15.29-5.51c0.5-0.16,1.02-0.32,1.54-0.49
							C583,421.665,591.1,441.505,606.69,457.645z"/>
					</g>
				</g>
				<path style="opacity:0.17;fill:#913E3C;" d="M659.79,423.495c-0.54,1.61-1.13,3.13-1.8,4.57c-3.07,6.7-7.79,11.77-17.65,17.06
					c-2.77,1.49-5.95,2.99-9.61,4.55c-8.43,3.59-16.93,6.1-24.04,7.97c-9.35,2.45-16.33,3.79-17.66,5.02
					c-0.78,0.73-1.69,1.27-2.74,1.71c-2.07,0.86-4.67,1.3-7.91,1.9c-3.06,0.57-4.98,2.92-8.49,3.96c1.14-3.2-0.29-6.03,0.51-7.52
					c1.21-2.23,16.68-4.47,26.55-10.61c9.87-6.15,39.01-11.73,47.92-25.57c8.9-13.84,9.24-33.36,8.68-50.08
					c-0.56-16.73-2.77-39.37-10.89-71.74c-5.45-21.73-18.73-26.71-26.87-27.63c1.53-1.76,3.39-3.09,5.66-3.86
					c3.16-1.07,12.53,0.62,19.57,10.55c3.33,4.7,6.54,9.16,9.35,15.65c1.67,3.87,3.2,8.46,4.51,14.26
					c1.15,5.02,2.13,10.95,2.93,18.1c0.12,1.13,0.25,2.22,0.37,3.27c0.81,7.35,1.44,12.99,1.93,17.52
					c1.28,11.69,1.66,15.96,2.03,23.09c0.07,1.3,0.14,2.6,0.2,3.9c0.34,6.18,0.73,12.23,1.4,16.89c0.3,2.12,0.67,3.95,1.11,5.38
					C666.47,407.065,663.58,412.305,659.79,423.495z"/>
				<path style="fill:#B7642C;" d="M563.947,467.688c-0.681,1.471-2.517,0.499-4.925-1.958c-5.545-5.678-14.081-19.26-18.045-28.611
					c-2.164-5.083-2.979-8.913-1.216-9.533c1.192-0.413,4.013,2.237,7.32,6.359c6.213,7.758,14.178,20.744,16.488,28.49
					C564.264,464.746,564.458,466.594,563.947,467.688z"/>
				<path style="fill:#C97E61;" d="M560.43,455.865c-0.78,0.68-1.79,1.4-2.94,2.14c-4.08,2.59-9.79,5.34-12.39,6.71
					c-3.57,1.89-7.68,4.38-12.88,5.46c-3.18,0.66-5.35,0.69-6.68,0.32c-0.83-0.22-1.33-0.6-1.54-1.07c-0.54-1.21,2.7-1.89,5.12-2.49
					c2.43-0.61,6.68-2.16,6.48-2.56c-0.21-0.41-2.7,0.27-6.48,1.01c-3.77,0.74-11.12,2.02-11.66-0.34c-0.54-2.35,3.03-2.69,7.22-3.5
					c4.18-0.81,8.29-2.23,7.95-2.91c-0.34-0.69-3.57,0.75-7.82,1.42c-4.25,0.68-11.52,1.49-12-0.8c-0.47-2.3,1.35-2.97,7.01-3.98
					c5.67-1.02,11.6-3.1,11.6-3.78c0-0.67-2.09,0-7.21,0.94c-5.13,0.95-9.51,0.95-9.98-1.21c-0.47-2.15,2.69-2.15,7.07-3.03
					c4.39-0.88,10.45-3.1,10.12-3.64c-0.34-0.54-4.85-0.47-7.82-1.07c-2.97-0.6-4.11-3.59-2.83-4.26c1.28-0.67,7.07-0.67,10.38-0.78
					c3.3-0.1,7.21,2.07,11.39,1.79c1.12-0.07,2.24-0.36,3.27-0.75c0.21-0.08,0.41-0.16,0.61-0.24c1.36-0.57,2.55-1.28,3.34-1.81
					C553.78,442.455,558.94,450.855,560.43,455.865z"/>
				<path style="opacity:0.23;fill:#913E3C;" d="M560.43,455.865c-0.78,0.68-1.79,1.4-2.94,2.14c-4.08,2.59-9.79,5.34-12.39,6.71
					c-3.57,1.89-7.68,4.38-12.88,5.46c-3.18,0.66-5.35,0.69-6.68,0.32c1.81-0.45,3.71-0.76,5.46-1.21
					c5.29-1.36,9.92-4.48,14.42-7.59c2.16-1.49,4.34-3.02,5.99-5.07c5.49-6.83-0.21-12.45-4.99-17.38c1.36-0.57,2.55-1.28,3.34-1.81
					C553.78,442.455,558.94,450.855,560.43,455.865z"/>
			</g>
		</g>
		<g>
			<g>
				<path style="fill:#C97E61;" d="M608.19,272.665c-3.83,10.2-18.01,26.77-36.18,23.53c-7.29-1.3-12.56-5.82-16.24-10.76h-0.01
					c-5.49-7.36-7.49-15.66-7.49-15.66c8.77,0.13,10.36-1.41,13.71-10.66c2.09-5.79,3.78-13.21,4.74-17.94
					c0.58-2.82,0.9-4.68,0.9-4.68c22.7-0.16,35.82-8.61,35.82-8.61s-1.79,35.69,0,40.16
					C605.23,272.505,608.19,272.665,608.19,272.665z"/>
				<path style="opacity:0.2;fill:#702A2A;" d="M608.19,272.665c-3.83,10.2-18.01,26.77-36.18,23.53
					c-7.29-1.3-12.56-5.82-16.24-10.76c28.71,13.38,38.04-5.63,38.6-23.19c0.55-17.56-0.56-20.69-10.56-19.95
					c-6.82,0.5-13.52-0.45-17.09-1.12c0.58-2.82,0.9-4.68,0.9-4.68c22.7-0.16,35.82-8.61,35.82-8.61s-1.79,35.69,0,40.16
					C605.23,272.505,608.19,272.665,608.19,272.665z"/>
			</g>
			<g>
				<g>
					<path style="fill:#422214;" d="M539.039,162.796c0,0-3.521,12.361-11.209,26.381c-7.688,14.02-13.718,30.602-9.045,41.909
						c4.673,11.306,15.979,8.743,17.035-1.658c1.055-10.402-0.865-23.065,1.15-35.426c2.016-12.362,5.129-30.233,5.129-30.233
						L539.039,162.796z"/>
					<path style="fill:#422214;" d="M624.255,142.622c0,0,3.047-10.383,14.076-17.494c11.029-7.11,20.72-0.879,7.546,13.496
						c0,0,17.849-2.612,25.685,20.171c7.836,22.783,0,33.521-11.609,29.313c0,0,1.306,18.574-12.77,25.25
						c-14.076,6.675-19.59-17.849-18.865-24.669C629.044,181.867,627.158,154.456,624.255,142.622z"/>
					<path style="fill:#422214;" d="M627.86,197.841c0,0,4.845-5.927,6.31-22.625c1.465-16.698-1.968-26.179-5.852-31.804
						c-3.884-5.625-32.683-13.176-52.401-13.176c-12.754,0-18.849,3.309-22.332,6.501c-9.461,8.673-13.771,30.382-13.871,30.859
						c-0.1,0.477-2.67,9.626,9.724,11.654c12.394,2.028,16.676-11.042,16.676-11.042s9.923,2.253,15.665-6.197
						c0,0,3.264,3.606,8.785,2.704c0,0,1.239,8.264,12.282,8.357c0,0-1.803,12.149,12.507,13.614c0,0-3.38,11.268-0.113,13.296
						C618.508,202.01,627.86,197.841,627.86,197.841z"/>
					<path style="fill:#422214;" d="M540.01,166.198c0,0-4.994,4.751-10.177,0c-5.183-4.751,0-16.582,6.084-22.216
						c0,0-10.253,6.197-14.873,1.465c-4.62-4.732,3.268-13.521,13.408-10.704c0,0-9.915-2.254-10.253-11.38
						c-0.338-9.127,14.197-11.944,19.493-8.901c5.296,3.042,6.76,10.591,6.76,10.591s2.817-14.535,14.084-14.873
						c11.267-0.338,9.014,23.211,9.014,23.211s7.775-5.408,10.591,0.338c2.817,5.746-8.113,11.831-8.113,11.831
						s3.535,2.301,2.106,9.094c-1.43,6.793-6.275,9.634-14.162,9.115c0,0-3.701,10.543-13.972,11.26S540.01,166.198,540.01,166.198z
						"/>
					<g>
						<path style="fill:#C97E61;" d="M613.35,217.195c0,0-3.58,10.76-18.13,17.46c-14.54,6.7-39.17,6.7-53.12-4.27
							c-2.03-1.6-3.63-3.44-4.88-5.43c-7.34-11.69-2.6-28.73-1.91-34.16c0.51-4.04,2.27-12.89,3.49-18.79
							c0.69-3.39,1.21-5.81,1.21-5.81s-0.25,7.1,8.09,7.59c8.33,0.49,13.18-6.09,14.91-11.28c0,0,4.51,1.62,9.35-0.81
							c4.85-2.42,5.78-7.04,5.78-7.04s2.42,2.88,6.23,4.04c3.81,1.15,7.73-0.69,7.73-0.69s-0.46,4.96,4.04,8.77
							c4.51,3.81,9.47,3.12,9.47,3.12s-0.23,6.23,4.62,10.5c4.85,4.27,8.31,3.93,8.31,3.93s-0.81,8.94-1.85,14.17
							c0,0,6.24-7.02,11.43-2.86C633.32,199.795,630.08,218.425,613.35,217.195z"/>
						<path style="opacity:0.2;fill:#702A2A;" d="M613.35,217.195c0,0-3.58,10.76-18.13,17.46c-14.54,6.7-39.17,6.7-53.12-4.27
							c-2.03-1.6-3.63-3.44-4.88-5.43c0.01,0.01,0.01,0.01,0.02,0.02c14.68,13.92,47.07,15.08,54.15-1.33
							c7.08-16.41,11.42-48.08,5.26-51.75c-6.17-3.67-7.39-9.1-7.39-9.1c-7.05,2.74-10.83-2.84-10.83-2.84
							c-5.39,8.63-15.79,6.56-15.79,6.56s-2.83,9.3-14.37,9.75c-4.72,0.18-7.66-1.82-9.47-4.26c0.69-3.39,1.21-5.81,1.21-5.81
							s-0.25,7.1,8.09,7.59c8.33,0.49,13.18-6.09,14.91-11.28c0,0,4.51,1.62,9.35-0.81c4.85-2.42,5.78-7.04,5.78-7.04
							s2.42,2.88,6.23,4.04c3.81,1.15,7.73-0.69,7.73-0.69s-0.46,4.96,4.04,8.77c4.51,3.81,9.47,3.12,9.47,3.12
							s-0.23,6.23,4.62,10.5c4.85,4.27,8.31,3.93,8.31,3.93s-0.81,8.94-1.85,14.17c0,0,6.24-7.02,11.43-2.86
							C633.32,199.795,630.08,218.425,613.35,217.195z"/>
						<g style="opacity:0.48;">
							<path style="fill:#422214;" d="M626.647,200.538c-3.544-0.657-7.461,0.389-9.584,3.218c-1.036,1.395-1.809,3.025-1.985,4.742
								c-0.236,1.667,0.129,3.556,1.378,4.494c0.611,0.464,1.411,0.626,2.227,0.555c0.801-0.104,1.551-0.443,2.172-0.978
								c1.238-1.082,1.907-2.86,1.816-4.511c-0.059-0.822-0.434-1.62-1.148-1.914c-0.696-0.292-1.643-0.148-2.461,0.09
								c-1.685,0.481-3.068,1.843-3.819,3.489c0.543-1.733,1.883-3.265,3.659-3.952c0.441-0.169,0.906-0.281,1.375-0.338
								c0.228-0.05,0.479-0.042,0.734-0.027c0.126,0.01,0.254,0.002,0.379,0.028l0.371,0.126c1.027,0.37,1.564,1.457,1.672,2.409
								c0.131,0.981-0.025,1.961-0.358,2.869c-0.339,0.902-0.839,1.774-1.591,2.437c-1.459,1.345-3.873,1.79-5.627,0.519
								c-0.846-0.633-1.348-1.585-1.592-2.532c-0.256-0.956-0.264-1.941-0.125-2.885c0.258-1.899,1.116-3.668,2.328-5.105
								c1.23-1.433,2.911-2.483,4.726-2.904C623.009,199.968,624.907,199.999,626.647,200.538z"/>
						</g>
					</g>
					<path style="fill:#422214;" d="M610.29,177.36c0,0-0.452,7.555-4.824,23.782c-4.372,16.226-9.497,33.412-4.522,43.814
						c4.975,10.402,17.939,8.376,18.09-4.329c0.151-12.706-0.754-44.627,0.905-58.967
						C619.938,181.659,614.511,181.301,610.29,177.36z"/>
				</g>
				<g>
					<g>
						<g>
							<path style="fill:#2D1A13;" d="M550.532,187.85c-0.201,2.387-1.454,4.23-2.799,4.117c-1.345-0.113-2.273-2.14-2.072-4.526
								c0.201-2.387,1.454-4.23,2.799-4.117C549.805,183.437,550.733,185.464,550.532,187.85z"/>
							<path style="fill:#2D1A13;" d="M587.942,190.997c-0.201,2.387-1.454,4.23-2.799,4.117c-1.345-0.113-2.273-2.14-2.072-4.526
								c0.201-2.387,1.454-4.23,2.799-4.117C587.215,186.584,588.143,188.611,587.942,190.997z"/>
						</g>
					</g>
					<path style="opacity:0.82;fill:#8E3333;" d="M563.314,186.147c0.304-1.303,3.469-0.631,4.1,0.631
						c0.631,1.262-0.158,13.247-2.681,18.293c-2.523,5.046-6.466,1.892-8.831-0.631c-2.366-2.523,0.158-6.623,3.469-4.416
						C559.372,200.025,561.107,195.609,563.314,186.147z"/>
					<path style="opacity:0.64;fill:none;stroke:#422214;stroke-linecap:round;stroke-linejoin:round;stroke-miterlimit:10;" d="
						M581.607,215.794c0,0-2.681-1.419-7.096-1.104c-4.416,0.315-14.193,5.046-14.193,5.046"/>
					<g>
						<g>
							<path style="fill:#422214;" d="M577.073,175.155c1.134-0.511,2.06,0.653,5.326,1.206c3.266,0.553,5.678-0.201,7.889,0.804
								c2.211,1.005,4.221,3.869,4.07,4.372c-0.151,0.503-2.563-0.703-5.326-0.854c-2.764-0.151-4.774,0.553-8.09-0.502
								C577.626,179.125,576.471,175.427,577.073,175.155z"/>
							<path style="fill:#422214;" d="M539.236,177.266c0.912,0.491,2.965-1.105,7.387-1.055c4.422,0.05,7.66,0.848,8.352,0.6
								c0.692-0.248-0.212-2.308-3.478-3.263c-3.266-0.955-7.487-0.352-9.698,0.754S538.582,176.914,539.236,177.266z"/>
						</g>
					</g>
					<g style="opacity:0.54;">
						<g>
							<g>
								<path style="fill:#8E3333;" d="M590.754,202.727c2.135,2.006-1.563,6.295-4.477,5.031
									C583.363,206.493,588.409,200.524,590.754,202.727z"/>
								<path style="fill:#8E3333;" d="M599.009,202.727c2.136,2.006-1.563,6.295-4.477,5.031
									C591.619,206.493,596.664,200.524,599.009,202.727z"/>
							</g>
							<g>
								<path style="fill:#8E3333;" d="M539.424,198.936c1.972,1.852-1.443,5.812-4.134,4.645
									C532.601,202.414,537.259,196.902,539.424,198.936z"/>
								<path style="fill:#8E3333;" d="M547.046,198.936c1.972,1.852-1.443,5.812-4.133,4.645
									C540.223,202.414,544.881,196.902,547.046,198.936z"/>
							</g>
						</g>
					</g>
					<g>
						<g>
							<circle style="fill:none;stroke:#2D160E;stroke-miterlimit:10;" cx="588.392" cy="189.479" r="15.678"/>
							<circle style="fill:none;stroke:#2D160E;stroke-miterlimit:10;" cx="543.924" cy="185.441" r="15.678"/>
							<path style="fill:none;stroke:#2D160E;stroke-miterlimit:10;" d="M559.445,187.645c0,0,7.2-2.237,13.269,1.834"/>
							<line style="fill:none;stroke:#2D160E;stroke-miterlimit:10;" x1="603.441" y1="193.875" x2="618.352" y2="196.947"/>
							<line style="fill:none;stroke:#2D160E;stroke-miterlimit:10;" x1="530.488" y1="177.36" x2="537.244" y2="178.344"/>
						</g>
					</g>
				</g>
			</g>
		</g>
		<g>
			<g>
				<path style="fill:#FDB757;" d="M577.41,333.975c-1.39,1.91-3.31,3.43-4.7,4.65c-1.12,0.99-1.95,2.1-2.65,3.47
					c-1.57,3.04-2.51,7.28-4.66,13.9c0,0.01-0.01,0.02-0.01,0.03c-1.13,3.47-3.08,8.39-5.61,13.93c-1.93,4.21-4.19,8.79-6.71,13.37
					c-2.73,5-5.75,10.02-8.92,14.58c-0.68,0.97-1.36,1.92-2.05,2.85c-2.34,3.14-4.56,5.99-6.73,8.5
					c-5.91,6.85-11.47,11.23-18.25,12.46c-2.18,0.4-4.49,0.47-6.98,0.19c-2.04-0.23-3.87-0.63-5.49-1.18
					c-7.32-2.46-10.56-7.91-11.51-14.42c-0.97-6.72,0.53-14.58,2.52-21.41c1.36-4.66,2.95-8.84,4.16-11.87
					c0.55-1.37,1.09-2.61,1.64-3.75c3.38-7.11,6.7-10.22,9.05-13.88c0.8-1.23,1.48-2.52,2.02-4.04c1.09-3.06,3.65-6.26,6.23-9.51
					c3.12-3.96,6.28-7.99,6.85-11.9c0.03-0.21,0.06-0.41,0.1-0.62c1.13-6.33,5.36-11.77,7.56-14.41c0.2-0.23,0.37-0.44,0.53-0.62
					c2.04-2.4-0.69-8.69,8.3-12.81c8.99-4.11,25.89,11.04,33.66,19.9C580.54,326.835,579.65,330.915,577.41,333.975z"/>
				<path style="fill:#B7642C;" d="M576.25,329.785c-0.539,2.158-3.952,1.607-8.455-0.446c-8.877-4.057-22.011-13.943-25.798-20.369
					c-1.102-1.865-1.419-3.436-0.621-4.491c0.668-0.891,2.24-0.915,4.362-0.328c6.532,1.829,18.305,9.581,25.189,16.476
					C574.527,324.238,576.79,327.615,576.25,329.785z"/>
				<g>
					<path style="fill:#FF9545;" d="M544.15,397.905c-0.68,0.97-1.36,1.92-2.05,2.85c-2.34,3.14-4.56,5.99-6.73,8.5
						c-18.98-4.1-33-16.99-39.71-24.36c1.36-4.66,2.95-8.84,4.16-11.87c0.55-1.37,1.09-2.61,1.64-3.75
						C512.35,386.485,534.88,395.015,544.15,397.905z"/>
					<path style="fill:#FF9545;" d="M517.12,421.715c-2.18,0.4-4.49,0.47-6.98,0.19c-11.25-1.27-15.84-7.65-17-15.6
						C500.46,413.385,509.53,418.395,517.12,421.715z"/>
					<path style="fill:#FF9545;" d="M559.78,369.955c-1.93,4.21-4.19,8.79-6.71,13.37c-21.34-6.12-35.4-19.47-42.56-27.93
						c0.8-1.23,1.48-2.52,2.02-4.04c1.09-3.06,3.65-6.26,6.23-9.51C530.4,359.835,548.31,367.075,559.78,369.955z"/>
					<path style="fill:#FF9545;" d="M570.06,342.095c-1.57,3.04-2.51,7.28-4.66,13.9c-19.56-6.26-32.69-18.52-39.69-26.67
						c1.13-6.33,5.36-11.77,7.56-14.41C543.5,330.935,558.69,338.525,570.06,342.095z"/>
				</g>
				<path style="opacity:0.17;fill:#913E3C;" d="M577.41,333.975c-1.39,1.91-3.31,3.43-4.7,4.65c-1.12,0.99-1.95,2.1-2.65,3.47
					c-1.57,3.04-2.51,7.28-4.66,13.9c0,0.01-0.01,0.02-0.01,0.03c-1.13,3.47-3.08,8.39-5.61,13.93c-1.93,4.21-4.19,8.79-6.71,13.37
					c-2.73,5-5.75,10.02-8.92,14.58c-0.68,0.97-1.36,1.92-2.05,2.85c-2.34,3.14-4.56,5.99-6.73,8.5
					c-5.91,6.85-11.47,11.23-18.25,12.46c-2.18,0.4-4.49,0.47-6.98,0.19c-2.04-0.23-3.87-0.63-5.49-1.18
					c0.07-0.02,0.15-0.04,0.22-0.06c10.7-3.15,19.02-11.42,26.42-19.76c4.68-5.29,9.21-10.75,12.88-16.78
					c6.97-11.5,10.57-24.67,14.06-37.64c1.07-3.96,2.18-8.03,4.62-11.33c0.5-0.68,1.09-1.35,1.9-1.6c0.77-0.23,1.58-0.04,2.36,0.15
					C569.96,334.415,574.29,335.035,577.41,333.975z"/>
			</g>
			<g>
				<g>
					<polygon style="fill:#9B5C32;" points="591.225,300.867 584.87,302.72 569.977,225.783 568.23,216.741 574.198,215.85 
						575.957,224.657 					"/>
					<polygon style="fill:#FFD4A1;" points="591.228,300.275 590.713,305.166 590.284,309.163 587.807,306.147 584.583,302.212 
											"/>
					<polygon style="fill:#2D1A13;" points="590.713,305.166 590.284,309.163 587.807,306.147 					"/>
					<polygon style="opacity:0.55;fill:#FF9545;" points="586.957,301.49 570.404,216.365 572.214,216.093 589.047,300.882 					"/>
					<path style="fill:#FF9CB1;" d="M568.105,216.857c0,0-1.371-4.481,2.164-5.141c3.535-0.66,3.822,4.247,3.822,4.247
						L568.105,216.857z"/>
					<polygon style="fill:#9B9B9B;" points="575.69,223.335 569.7,224.335 569.2,222.015 569,221.075 568.67,219.535 
						568.47,218.595 568.1,216.855 574.09,215.965 574.49,217.815 574.69,218.745 575.03,220.285 575.23,221.225 					"/>
					<polygon style="opacity:0.76;fill:#5E5E5E;" points="574.69,218.745 568.67,219.535 568.47,218.595 574.49,217.815 					"/>
					<polygon style="opacity:0.76;fill:#5E5E5E;" points="575.23,221.225 569.2,222.015 569,221.075 575.03,220.285 					"/>
				</g>
				<g>
					<path style="fill:#C97E61;" d="M590.84,288.395c-1.12,1.85-7.76,3.17-9.01,4.1c-1.23,0.93,0.37,4.22-2.81,8.58
						c-1.78,2.47-5.3,11.82-8.09,19.55c-1.27,3.51-2.38,6.67-3.13,8.71c-7.57-3.45-18.24-11.16-23.56-17.33
						c-0.92-1.07-1.68-2.09-2.24-3.03c1.01-1.34,2.3-3.03,3.74-4.82c1.5-1.86,3.16-3.84,4.88-5.72c5.67-6.21,8.71-10.56,9.64-12.74
						c0.92-2.18,3.96-15.14,6.34-17.91c2.38-2.78,9.8-5.04,13.49-6.61c3.69-1.59,8.05-4.48,8.84-2.77c0.07,0.14,0.12,0.3,0.15,0.47
						c0.4,1.87-1.07,5.31-5.3,7.6c-4.63,2.5-9.65,5.01-10.31,6.06c-0.66,1.07,2.97-1.31,7.44-1.71c4.45-0.4,5.78,0.27,6.96,1.32
						c1.19,1.06,1.28,3.44,1.28,3.44s1.76,1.71,0.97,4.62c0,0,1.47,1.33,0.2,4.22C590.32,284.425,591.95,286.545,590.84,288.395z"/>
					<path style="opacity:0.27;fill:#F4B37D;" d="M589.08,258.875c-1.41,0.18-3.69,0.94-7.3,3.12c-7.97,4.81-14.62,5.43-15.17,11.87
						s-3.11,11.05-6.83,18.12c-3.18,6.05-10.63,14.11-15.54,20.02c-0.92-1.07-1.68-2.09-2.24-3.03c1.01-1.34,2.3-3.03,3.74-4.82
						c1.5-1.86,3.16-3.84,4.88-5.72c5.67-6.21,8.71-10.56,9.64-12.74c0.92-2.18,3.96-15.14,6.34-17.91
						c2.38-2.78,9.8-5.04,13.49-6.61c3.69-1.59,8.05-4.48,8.84-2.77C589,258.545,589.05,258.705,589.08,258.875z"/>
					<g style="opacity:0.29;">
						<g>
							<path style="fill:#422214;" d="M589.09,275.801c-1.976,0.129-3.864,0.357-5.775,0.618c-0.955,0.115-1.906,0.274-2.869,0.396
								c-0.962,0.132-1.926,0.271-2.924,0.334c1.769-0.922,3.699-1.437,5.659-1.72c0.984-0.12,1.977-0.194,2.972-0.146
								C587.145,275.329,588.15,275.447,589.09,275.801z"/>
						</g>
						<g>
							<path style="fill:#422214;" d="M589.92,279.741c-1.777,0.356-3.504,0.578-5.236,0.848l-2.599,0.382
								c-0.873,0.12-1.739,0.271-2.65,0.346c1.561-0.937,3.327-1.449,5.104-1.717c0.892-0.123,1.792-0.199,2.693-0.18
								C588.132,279.432,589.037,279.509,589.92,279.741z"/>
						</g>
						<g>
							<path style="fill:#422214;" d="M590.09,283.341c-0.831,0.076-1.622,0.172-2.407,0.29c-0.782,0.128-1.556,0.254-2.315,0.45
								c-0.763,0.177-1.52,0.385-2.272,0.632c-0.761,0.231-1.501,0.527-2.306,0.773c1.16-1.206,2.721-1.987,4.35-2.379
								c0.819-0.19,1.661-0.282,2.499-0.253C588.474,282.88,589.317,283.006,590.09,283.341z"/>
						</g>
					</g>
				</g>
			</g>
		</g>
	</g>
	<g>
		<path style="fill:#849CF2;" d="M498.84,55.352c0.058,0.029,0.117,0.057,0.176,0.086c1.948,0.939,4.27,0.186,5.358-1.683
			c1.789-3.071,5.22-7.079,10.405-5.445c8.066,2.541,4.487,13.966-2.535,14.802c-7.022,0.837-10.137-0.234-10.279,0.181
			c-0.094,0.273-1.141,6.386-1.848,10.545c-0.358,2.108,1.055,4.104,3.161,4.472l0,0c2.082,0.364,4.073-1.004,4.48-3.079
			l0.654-3.337c0,0,14.948,1.773,19.229-10.34c4.281-12.112-4.982-24.005-15.93-22.893c-8.539,0.868-12.562,6.678-14.761,11.163
			C495.941,51.88,496.788,54.338,498.84,55.352z"/>
		
			<ellipse transform="matrix(1 -0.0097 0.0097 1 -0.8051 4.8628)" style="fill:#849CF2;" cx="502.086" cy="85.626" rx="4.062" ry="4.062"/>
	</g>
	<g>
		<path style="fill:#849CF2;" d="M324.055,94.692c0.064,0.011,0.128,0.022,0.193,0.033c2.134,0.352,4.149-1.026,4.666-3.126
			c0.85-3.451,3.011-8.264,8.447-8.159c8.456,0.163,8.243,12.133,1.743,14.916c-6.501,2.783-9.791,2.634-9.811,3.073
			c-0.013,0.288,0.706,6.449,1.201,10.638c0.251,2.123,2.17,3.64,4.294,3.399l0,0c2.1-0.238,3.625-2.112,3.43-4.217l-0.314-3.386
			c0,0,14.841-2.515,15.532-15.343s-11.55-21.625-21.74-17.47c-7.948,3.241-10.169,9.95-11.014,14.873
			C320.295,92.178,321.801,94.298,324.055,94.692z"/>
		<path style="fill:#849CF2;" d="M339.766,123.005c-0.102,2.241-2.001,3.976-4.242,3.875c-2.241-0.102-3.976-2.001-3.874-4.242
			c0.102-2.241,2.001-3.976,4.242-3.875C338.133,118.865,339.868,120.764,339.766,123.005z"/>
	</g>
	<g>
		<path style="fill:#849CF2;" d="M187.746,75.807c0.064,0.011,0.128,0.022,0.193,0.033c2.134,0.352,4.149-1.026,4.666-3.126
			c0.85-3.451,3.011-8.264,8.447-8.159c8.455,0.163,8.243,12.133,1.743,14.916c-6.501,2.783-9.791,2.634-9.811,3.073
			c-0.013,0.288,0.706,6.449,1.201,10.638c0.251,2.123,2.17,3.64,4.294,3.399l0,0c2.1-0.238,3.624-2.112,3.43-4.217l-0.314-3.386
			c0,0,14.841-2.515,15.532-15.343c0.691-12.828-11.55-21.625-21.74-17.47c-7.948,3.241-10.169,9.95-11.014,14.873
			C183.986,73.294,185.492,75.413,187.746,75.807z"/>
		<path style="fill:#849CF2;" d="M203.457,104.12c-0.102,2.241-2.001,3.976-4.242,3.875c-2.241-0.101-3.976-2.001-3.875-4.242
			c0.102-2.241,2.001-3.976,4.242-3.874C201.824,99.98,203.559,101.879,203.457,104.12z"/>
	</g>
	<g>
		<path style="fill:#849CF2;" d="M601.54,81.912c0.064,0.011,0.128,0.022,0.193,0.033c2.134,0.352,4.149-1.026,4.666-3.126
			c0.85-3.451,3.011-8.264,8.447-8.159c8.456,0.163,8.243,12.133,1.743,14.916c-6.501,2.783-9.791,2.634-9.811,3.073
			c-0.013,0.288,0.706,6.449,1.201,10.638c0.251,2.123,2.17,3.64,4.294,3.399l0,0c2.1-0.238,3.625-2.112,3.43-4.217l-0.314-3.386
			c0,0,14.841-2.515,15.532-15.343c0.691-12.828-11.55-21.625-21.74-17.47c-7.948,3.241-10.169,9.95-11.014,14.873
			C597.78,79.399,599.285,81.519,601.54,81.912z"/>
		<path style="fill:#849CF2;" d="M617.251,110.226c-0.101,2.241-2.001,3.976-4.242,3.875c-2.241-0.102-3.976-2.001-3.875-4.242
			c0.102-2.241,2.001-3.976,4.242-3.874C615.618,106.085,617.352,107.984,617.251,110.226z"/>
	</g>
</g>
</svg>
