<svg xmlns="http://www.w3.org/2000/svg" version="1.1" xmlns:xlink="http://www.w3.org/1999/xlink" xmlns:svgjs="http://svgjs.dev/svgjs" width="1000" height="1000" viewBox="0 0 1000 1000"><rect width="1000" height="1000" fill="#ffffff"></rect><g transform="matrix(0.7,0,0,0.7,149.57577586551355,425.4661401280507)"><svg viewBox="0 0 396 85" data-background-color="#8abcd7" preserveAspectRatio="xMidYMid meet" height="214" width="1000" xmlns="http://www.w3.org/2000/svg" xmlns:xlink="http://www.w3.org/1999/xlink"><g id="tight-bounds" transform="matrix(1,0,0,1,0.2399933342339864,-0.20775624643508195)"><svg viewBox="0 0 395.52 85.41551266088308" height="85.41551266088308" width="395.52"><g><svg viewBox="0 0 546.3841031770114 117.99574808510636" height="85.41551266088308" width="395.52"><g transform="matrix(1,0,0,1,150.8641031770115,16.307661276595738)"><svg viewBox="0 0 395.52 85.38042553191488" height="85.38042553191488" width="395.52"><g id="textblocktransform"><svg viewBox="0 0 395.52 85.38042553191488" height="85.38042553191488" width="395.52" id="textblock"><g><svg viewBox="0 0 395.52 85.38042553191488" height="85.38042553191488" width="395.52"><g transform="matrix(1,0,0,1,0,0)"><svg width="395.52" viewBox="1.600000023841858 -35.599998474121094 225.57998657226562 48.69999694824219" height="85.38042553191488" data-palette-color="#ffffff"><path d="M24.7-34.55Q25.95-34.4 26.68-33.77 27.4-33.15 27.4-31.75L27.4-31.75Q27.4-30.3 26.58-29.6 25.75-28.9 24.25-29L24.25-29Q20.1-29.25 17.65-29.3L17.65-29.3Q17.25-24.15 17-16.9L17-16.9Q16.8-8.7 16.8-2.4L16.8-2.4Q16.8-0.8 16.18-0.15 15.55 0.5 13.8 0.5L13.8 0.5Q12 0.5 11.2-0.2 10.4-0.9 10.4-2.6L10.4-2.6Q10.4-8.65 10.8-16.9L10.8-16.9 11.2-24.15Q11.25-26.2 11.45-29.25L11.45-29.25Q9.4-29.2 6-28.95L6-28.95 4.8-28.85 4.3-28.8Q3.05-28.8 2.33-29.6 1.6-30.4 1.6-31.7L1.6-31.7Q1.6-33.95 4.05-34.3L4.05-34.3Q7.95-34.85 15.15-34.85L15.15-34.85Q21.65-34.85 24.7-34.55L24.7-34.55ZM55.75-4.8Q56.6-4.65 57.07-4.17 57.55-3.7 57.55-2.5L57.55-2.5Q57.55-1.45 57-0.75 56.45-0.05 55.55-0.05L55.55-0.05Q53.4-0.05 52.3-0.6 51.2-1.15 50.35-2.65L50.35-2.65Q48.25 0.5 42.75 0.5L42.75 0.5Q37 0.5 34.15-2.88 31.3-6.25 31.3-11.75L31.3-11.75Q31.3-15.4 32.77-18.35 34.25-21.3 37-23 39.75-24.7 43.35-24.7L43.35-24.7Q45.4-24.7 47.05-23.88 48.7-23.05 49.55-21.7L49.55-21.7 49.7-22.75Q49.75-23.45 50.35-23.95 50.95-24.45 52.25-24.45L52.25-24.45Q53.75-24.45 54.42-23.75 55.1-23.05 54.95-22L54.95-22Q54.65-20.4 54.3-16.35L54.3-16.35Q54.15-14.35 54.15-11.2L54.15-11.2 54.15-8.85Q54.15-6.75 54.4-5.83 54.65-4.9 55.75-4.8L55.75-4.8ZM48.25-8.9Q48.3-11.05 48.3-15.15L48.3-15.15Q48.3-17.45 46.82-18.7 45.35-19.95 43.45-19.95L43.45-19.95Q40.7-19.95 39.05-17.55 37.4-15.15 37.4-11.8L37.4-11.8Q37.4-8.55 38.85-6.4 40.3-4.25 43.1-4.25L43.1-4.25Q45.4-4.25 46.8-5.45 48.2-6.65 48.25-8.9L48.25-8.9ZM76.44-25.5Q80.75-25.5 83.09-22.48 85.44-19.45 85.44-13.45L85.44-13.45 85.39-2Q85.39-1 84.55-0.5 83.69 0 82.39 0L82.39 0Q81.09 0 80.19-0.45 79.3-0.9 79.3-1.8L79.3-1.8 79.3-13.5Q79.3-17.35 78.44-19.03 77.59-20.7 75.59-20.7L75.59-20.7Q73.69-20.7 72.55-19.13 71.39-17.55 70.75-13.95L70.75-13.95Q70.39-11.75 70.39-8.95L70.39-8.95 70.44-2.2Q70.44-1.1 69.62-0.53 68.8 0.05 67.39 0.05L67.39 0.05Q66 0.05 65.17-0.55 64.34-1.15 64.34-2.2L64.34-2.2Q64.34-10.6 63.99-18.8L63.99-18.8Q63.99-19.6 63.74-20.2 63.49-20.8 63.17-21.3 62.84-21.8 62.74-22L62.74-22Q62.45-22.4 62.45-22.95L62.45-22.95Q62.45-23.85 63.52-24.65 64.59-25.45 65.55-25.45L65.55-25.45Q66.05-25.45 66.5-25.15 66.94-24.85 67.5-24.1L67.5-24.1Q68.69-22.5 68.69-21.1L68.69-21.1 68.69-20.7Q69.59-22.75 71.47-24.13 73.34-25.5 76.44-25.5L76.44-25.5ZM99.64 13.1Q98.19 13.1 97.29 12.33 96.39 11.55 96.39 10.4L96.39 10.4Q96.39 10 96.59 9.3L96.59 9.3Q97.84 6.15 100.69-2.05L100.69-2.05Q98.39-3.65 96.24-7.2 94.09-10.75 92.52-14.88 90.94-19 90.29-22.25L90.29-22.25Q90.19-22.65 90.19-23.15L90.19-23.15Q90.19-24.3 90.97-24.9 91.74-25.5 93.04-25.5L93.04-25.5Q94.29-25.5 94.79-25.03 95.29-24.55 95.49-23.6L95.49-23.6Q97.14-17.5 99.02-13.33 100.89-9.15 102.74-7.85L102.74-7.85Q103.99-12.1 105.54-18.1L105.54-18.1 107.04-23.8Q107.29-24.8 107.84-25.2 108.39-25.6 109.49-25.6L109.49-25.6Q110.94-25.6 111.84-24.98 112.74-24.35 112.79-23.3L112.79-23.3Q112.79-22.95 112.74-22.75L112.74-22.75Q110.19-12.5 107.44-4L107.44-4Q103.84 7.15 102.19 11.25L102.19 11.25Q101.79 12.15 101.27 12.63 100.74 13.1 99.64 13.1L99.64 13.1ZM141.69-4.8Q142.54-4.65 143.01-4.17 143.49-3.7 143.49-2.5L143.49-2.5Q143.49-1.45 142.94-0.75 142.39-0.05 141.49-0.05L141.49-0.05Q139.34-0.05 138.24-0.6 137.14-1.15 136.29-2.65L136.29-2.65Q134.19 0.5 128.69 0.5L128.69 0.5Q122.94 0.5 120.09-2.88 117.24-6.25 117.24-11.75L117.24-11.75Q117.24-15.4 118.72-18.35 120.19-21.3 122.94-23 125.69-24.7 129.29-24.7L129.29-24.7Q131.34-24.7 132.99-23.88 134.64-23.05 135.49-21.7L135.49-21.7 135.64-22.75Q135.69-23.45 136.29-23.95 136.89-24.45 138.19-24.45L138.19-24.45Q139.69-24.45 140.37-23.75 141.04-23.05 140.89-22L140.89-22Q140.59-20.4 140.24-16.35L140.24-16.35Q140.09-14.35 140.09-11.2L140.09-11.2 140.09-8.85Q140.09-6.75 140.34-5.83 140.59-4.9 141.69-4.8L141.69-4.8ZM134.19-8.9Q134.24-11.05 134.24-15.15L134.24-15.15Q134.24-17.45 132.76-18.7 131.29-19.95 129.39-19.95L129.39-19.95Q126.64-19.95 124.99-17.55 123.34-15.15 123.34-11.8L123.34-11.8Q123.34-8.55 124.79-6.4 126.24-4.25 129.04-4.25L129.04-4.25Q131.34-4.25 132.74-5.45 134.14-6.65 134.19-8.9L134.19-8.9ZM175.49-8.1L177.09-2.85Q177.24-2.4 177.24-2.05L177.24-2.05Q177.24-0.8 176.21-0.13 175.19 0.55 173.79 0.55L173.79 0.55Q172.69 0.55 171.89 0.1 171.09-0.35 170.84-1.25L170.84-1.25 168.94-8.15 157.39-8.2Q157.04-7 156.71-5.93 156.39-4.85 156.14-3.95L156.14-3.95 155.39-1.4Q155.09-0.45 154.31 0.03 153.54 0.5 152.49 0.5L152.49 0.5Q151.09 0.5 150.06-0.2 149.04-0.9 149.04-2.05L149.04-2.05Q149.04-2.3 149.14-2.9L149.14-2.9Q149.14-2.9 156.24-24.2L156.24-24.2 157.99-29.55Q159.04-32.8 160.29-34.2 161.54-35.6 163.54-35.6L163.54-35.6Q165.49-35.6 166.64-34.35 167.79-33.1 168.79-30L168.79-30Q170.94-23.5 173.84-13.65L173.84-13.65 175.24-13.65Q176.29-13.65 176.89-12.95 177.49-12.25 177.49-10.9L177.49-10.9Q177.49-8.1 175.74-8.1L175.74-8.1 175.49-8.1ZM159.09-13.8L167.39-13.75Q165.89-19.35 164.79-23.05L164.79-23.05Q164.69-23.4 164.59-23.65 164.49-23.9 164.44-24.15L164.44-24.15Q164.04-25.55 163.79-26.2 163.54-26.85 163.29-26.85L163.29-26.85Q163.04-26.85 162.79-26.2 162.54-25.55 162.29-24.6L162.29-24.6Q162.04-23.6 161.94-23.3L161.94-23.3 159.09-13.8ZM191.09-27Q189.34-27 188.11-28.18 186.88-29.35 186.88-30.95L186.88-30.95Q186.88-32.55 188.06-33.68 189.23-34.8 191.03-34.8L191.03-34.8Q192.78-34.8 193.96-33.7 195.13-32.6 195.13-30.9L195.13-30.9Q195.13-29.2 193.94-28.1 192.73-27 191.09-27L191.09-27ZM184.63 11.8Q181.09 11.8 178.81 9.73 176.53 7.65 176.53 4.35L176.53 4.35Q176.53 2.85 177.19 2.18 177.84 1.5 179.34 1.5L179.34 1.5Q182.03 1.5 182.19 3.75L182.19 3.75Q182.38 5.55 182.88 6.28 183.38 7 184.34 7L184.34 7Q185.94 7 186.69 5.08 187.44 3.15 187.48-1.25L187.48-1.25Q187.73-13.6 187.73-22.85L187.73-22.85Q187.73-23.75 188.59-24.35 189.44-24.95 190.78-24.95L190.78-24.95Q192.13-24.95 192.94-24.35 193.73-23.75 193.73-22.7L193.73-22.7Q193.73-11.2 193.53-1.25L193.53-1.25Q193.34 5.3 191.13 8.55 188.94 11.8 184.63 11.8L184.63 11.8ZM225.38-4.8Q226.23-4.65 226.71-4.17 227.18-3.7 227.18-2.5L227.18-2.5Q227.18-1.45 226.63-0.75 226.08-0.05 225.18-0.05L225.18-0.05Q223.03-0.05 221.93-0.6 220.83-1.15 219.98-2.65L219.98-2.65Q217.88 0.5 212.38 0.5L212.38 0.5Q206.63 0.5 203.78-2.88 200.93-6.25 200.93-11.75L200.93-11.75Q200.93-15.4 202.41-18.35 203.88-21.3 206.63-23 209.38-24.7 212.98-24.7L212.98-24.7Q215.03-24.7 216.68-23.88 218.33-23.05 219.18-21.7L219.18-21.7 219.33-22.75Q219.38-23.45 219.98-23.95 220.58-24.45 221.88-24.45L221.88-24.45Q223.38-24.45 224.06-23.75 224.73-23.05 224.58-22L224.58-22Q224.28-20.4 223.93-16.35L223.93-16.35Q223.78-14.35 223.78-11.2L223.78-11.2 223.78-8.85Q223.78-6.75 224.03-5.83 224.28-4.9 225.38-4.8L225.38-4.8ZM217.88-8.9Q217.93-11.05 217.93-15.15L217.93-15.15Q217.93-17.45 216.46-18.7 214.98-19.95 213.08-19.95L213.08-19.95Q210.33-19.95 208.68-17.55 207.03-15.15 207.03-11.8L207.03-11.8Q207.03-8.55 208.48-6.4 209.93-4.25 212.73-4.25L212.73-4.25Q215.03-4.25 216.43-5.45 217.83-6.65 217.88-8.9L217.88-8.9Z" opacity="1" transform="matrix(1,0,0,1,0,0)" fill="#000000" class="wordmark-text-0" data-fill-palette-color="primary" id="text-0"></path></svg></g></svg></g></svg></g></svg></g><g><svg viewBox="0 0 130.70783383913914 117.99574808510636" height="117.99574808510636" width="130.70783383913914"><g><svg xmlns="http://www.w3.org/2000/svg" xmlns:xlink="http://www.w3.org/1999/xlink" version="1.1" x="0" y="0" viewBox="2.969003677368164 8.64900016784668 94.52400207519531 85.33100128173828" enable-background="new 0 0 100 100" xml:space="preserve" height="117.99574808510636" width="130.70783383913914" class="icon-icon-0" data-fill-palette-color="accent" id="icon-0"><g display="none" fill="#ffffff" data-fill-palette-color="accent"><polygon display="inline" points="45.454,16.378 11.119,16.378 11.119,50.713 29.547,77.188 42.673,67.431 31.152,50.713    45.454,50.713  " fill="#000000" data-fill-palette-color="accent"></polygon><polygon display="inline" points="87.528,16.378 53.192,16.378 53.192,50.713 71.621,77.188 84.747,67.431 73.226,50.713    87.528,50.713  " fill="#000000" data-fill-palette-color="accent"></polygon></g><g fill="#ffffff" data-fill-palette-color="accent"><path d="M85.871 8.649h-71.28c-6.418 0-11.622 5.204-11.622 11.622v52.493c0 6.419 5.203 11.623 11.622 11.623h9.113l0.005 9.593 11.995-9.593h50.167c6.419 0 11.622-5.204 11.622-11.623V20.271C97.493 13.853 92.29 8.649 85.871 8.649zM54.03 71.383H44.022V61.374H54.03V71.383zM60.952 46.323c-4.144 1.583-6.801 4.637-6.801 9.194H43.9c0-11.616 7.412-15.111 12.133-16.251 2.895-0.699 5.68-1.612 5.837-5.55 0.127-3.175-1.732-7.088-9.608-6.931-8.728 0.175-9.312 6.569-9.34 8.69l-10.251 0.127c-0.013-0.696 0.004-6.946 4.86-11.901 3.597-3.671 8.696-5.532 15.155-5.532 15.059 0 18.809 9.585 19.039 14.646C72.109 41.277 65.453 44.604 60.952 46.323z" fill="#000000" data-fill-palette-color="accent"></path></g></svg></g></svg></g></svg></g><defs></defs></svg><rect width="395.52" height="85.41551266088308" fill="none" stroke="none" visibility="hidden"></rect></g></svg></g></svg>